<?xml version="1.0" encoding="utf-8"?>
<!-- Generator: Adobe Illustrator 24.1.1, SVG Export Plug-In . SVG Version: 6.00 Build 0)  -->
<svg version="1.1" id="Capa_1" xmlns="http://www.w3.org/2000/svg" xmlns:xlink="http://www.w3.org/1999/xlink" x="0px" y="0px"
	 viewBox="0 0 132.8 157.6" style="enable-background:new 0 0 132.8 157.6;" xml:space="preserve">
<style type="text/css">
	.st0{fill:#AA8350;}
	.st1{clip-path:url(#SVGID_2_);}
	.st2{fill:#0F0F0F;}
	.st3{fill:#3C3C3B;}
	.st4{clip-path:url(#SVGID_6_);}
	.st5{fill:none;stroke:#1D1D1B;stroke-miterlimit:10;}
	.st6{clip-path:url(#SVGID_8_);}
	.st7{fill:#1D1D1B;}
	.st8{fill:#FFFFFF;}
	.st9{fill:none;stroke:#1D1D1B;stroke-width:8;stroke-miterlimit:10;}
	.st10{fill:none;stroke:#1D1D1B;stroke-width:5;stroke-miterlimit:10;}
	.st11{fill:none;stroke:#1D1D1B;stroke-width:2;stroke-miterlimit:10;}
	.st12{clip-path:url(#SVGID_10_);}
	.st13{clip-path:url(#SVGID_12_);}
	.st14{fill:none;stroke:#1D1D1B;stroke-width:7;stroke-miterlimit:10;}
	.st15{fill:none;stroke:#1D1D1B;stroke-width:4;stroke-miterlimit:10;}
	.st16{fill:#FFFFFF;stroke:#1D1D1B;stroke-width:4;stroke-miterlimit:10;}
	.st17{clip-path:url(#SVGID_14_);}
	.st18{clip-path:url(#SVGID_16_);}
	.st19{clip-path:url(#SVGID_18_);}
	.st20{fill:#31231E;}
	.st21{clip-path:url(#SVGID_20_);}
</style>
<g>
	<g>
		<g>
			<defs>
				<ellipse id="SVGID_17_" cx="66.6" cy="78.4" rx="56.6" ry="72.9"/>
			</defs>
			<clipPath id="SVGID_2_">
				<use xlink:href="#SVGID_17_"  style="overflow:visible;"/>
			</clipPath>
			<g class="st1">
				<path class="st20" d="M19.7,37.4l27-27.2c-0.1,0-0.2,0-0.3,0.1L19.7,37.2C19.7,37.2,19.7,37.3,19.7,37.4z"/>
				<path class="st20" d="M17.3,43.1L52.2,8.1c-0.1,0-0.2,0.1-0.4,0.1L17.6,42.7C17.5,42.8,17.4,43,17.3,43.1z"/>
				<path class="st20" d="M15.2,48.6l41.7-42c-0.1,0-0.2,0-0.3,0.1L15.4,48.2C15.3,48.4,15.3,48.5,15.2,48.6z"/>
				<g>
					<g>
						<path class="st20" d="M60.7,6c-8.7,8.7-17.4,17.6-26.2,26.2l0.1,0.1C43.5,23.6,52.3,14.8,61,6C60.9,6,60.8,6,60.7,6z"/>
					</g>
				</g>
				<path class="st20" d="M13.3,54.1c4.5-4.5,9-9.1,13.4-13.7l-0.1-0.1c-4.4,4.5-8.8,9-13.2,13.5C13.3,53.9,13.3,54,13.3,54.1z"/>
				<g>
					<g>
						<path class="st20" d="M64.4,5.7c-8.7,8.7-17.7,17.7-26.5,26.6l0.1,0.1c8.8-8.9,17.8-18,26.6-26.7C64.5,5.6,64.4,5.7,64.4,5.7z
							"/>
					</g>
				</g>
				<path class="st20" d="M12.4,58.2c4.9-4.9,9.8-9.9,14.7-14.8L27,43.2c-4.8,4.9-9.7,9.8-14.5,14.6C12.4,58,12.4,58.1,12.4,58.2z"
					/>
				<g>
					<g>
						<path class="st20" d="M40.2,33.5l-0.1-0.1c6.7-6.7,13.4-13.4,19.8-19.9l6-6.1L66,7.5l-6,6.1C53.5,20.1,46.9,26.8,40.2,33.5z"
							/>
					</g>
				</g>
				<path class="st20" d="M11.5,62.5C17,57,22.5,51.4,28,45.8l-0.1-0.1c-5.3,5.5-10.8,11-16.2,16.4C11.6,62.3,11.6,62.4,11.5,62.5z"
					/>
				<g>
					<g>
						<path class="st20" d="M42.1,35L42,34.8c2.7-2.8,5.5-5.6,8.2-8.3c5-5.1,10.2-10.4,15.5-15.6l0.1,0.1
							c-5.2,5.2-10.4,10.4-15.5,15.6C47.6,29.4,44.8,32.2,42.1,35z"/>
					</g>
				</g>
				<path class="st20" d="M10.9,66.4c6-6,12-12.1,18-18.1l-0.1-0.1c-5.9,6-11.9,11.9-17.8,17.9C10.9,66.2,10.9,66.3,10.9,66.4z"/>
				<g>
					<g>
						<path class="st20" d="M43.8,36.6l-0.1-0.1c5-5,10.5-10.5,16.7-16.8c1.6-1.6,3.1-3.2,4.7-4.7l0.1,0.1c-1.6,1.6-3.1,3.2-4.7,4.7
							C54.3,26.1,48.8,31.6,43.8,36.6z"/>
					</g>
				</g>
				<path class="st20" d="M10.5,70.1c5.2-5.2,10.3-10.4,15.5-15.6L26,54.3c-5.2,5.2-10.3,10.3-15.4,15.5
					C10.6,69.9,10.5,70,10.5,70.1z"/>
				<g>
					<g>
						<path class="st20" d="M59.9,23.7l-0.1-0.1c1.7-1.7,3.4-3.5,5.1-5.2l0.1,0.1C63.4,20.2,61.6,21.9,59.9,23.7z"/>
					</g>
				</g>
				<g>
					<g>
						<path class="st20" d="M45.3,38.4l-0.1-0.1c3.6-3.7,7.2-7.3,10.9-11l0.1,0.1C52.5,31.1,48.9,34.8,45.3,38.4z"/>
					</g>
				</g>
				<path class="st20" d="M25.2,58.4c-5,5-10,10-14.9,15c0,0.1,0,0.2,0,0.3c5-5.1,10-10.1,15.1-15.1L25.2,58.4z"/>
				<g>
					<g>
						<polygon class="st20" points="63.9,23 63.7,22.9 65.2,21.5 65.3,21.6 						"/>
					</g>
				</g>
				<g>
					<g>
						<path class="st20" d="M46.6,40.4l-0.1-0.1c3.2-3.2,6.4-6.5,9.6-9.7l0.1,0.1C53,33.9,49.8,37.2,46.6,40.4z"/>
					</g>
				</g>
				<path class="st20" d="M10.1,77.2c5.1-5.1,10.2-10.2,15.3-15.3l-0.1-0.1c-5,5.1-10.1,10.1-15.2,15.2C10.1,77,10.1,77.1,10.1,77.2
					z"/>
				<g>
					<g>
						<path class="st20" d="M47.5,43l-0.1-0.1c3.4-3.4,6.7-6.8,10.1-10.2l0.1,0.1C54.2,36.2,50.9,39.6,47.5,43z"/>
					</g>
				</g>
				<path class="st20" d="M10,80.7c5.2-5.2,10.4-10.4,15.5-15.6L25.4,65C20.3,70.2,15.1,75.4,10,80.5C10,80.6,10,80.7,10,80.7z"/>
				<g>
					<g>
						<polygon class="st20" points="69.5,24.1 69.4,23.9 71.2,22.1 71.3,22.2 						"/>
					</g>
				</g>
				<g>
					<g>
						<polygon class="st20" points="66.5,27.1 66.4,27 67.6,25.8 67.7,25.9 						"/>
					</g>
				</g>
				<g>
					<g>
						<path class="st20" d="M47.9,45.8l-0.1-0.1c2.8-2.8,5.6-5.7,8.4-8.5l0.1,0.1C53.5,40.2,50.7,43,47.9,45.8z"/>
					</g>
				</g>
				<path class="st20" d="M10.3,83.9c5.2-5.2,10.3-10.4,15.4-15.7l-0.1-0.1c-5,5.2-10.2,10.4-15.3,15.6
					C10.3,83.7,10.3,83.8,10.3,83.9z"/>
				<g>
					<g>
						<polygon class="st20" points="67.4,29.6 67.3,29.5 68.4,28.4 68.5,28.5 						"/>
					</g>
				</g>
				<g>
					<g>
						<polygon class="st20" points="48.6,48.6 48.4,48.4 52.9,43.9 53,44.1 						"/>
					</g>
				</g>
				<path class="st20" d="M10.3,87.1c5.3-5.3,10.5-10.6,15.8-15.9L26,71.1c-5.2,5.3-10.5,10.5-15.7,15.8
					C10.3,86.9,10.3,87,10.3,87.1z"/>
				<g>
					<g>
						<path class="st20" d="M67.9,32.3l-0.1-0.1c0.4-0.4,0.9-0.8,1.3-1.2l0.1,0.1C68.8,31.5,68.3,31.9,67.9,32.3z"/>
					</g>
				</g>
				<path class="st20" d="M10.6,90.2c5.3-5.3,10.6-10.7,15.9-16L26.4,74C21.1,79.3,15.8,84.7,10.6,90C10.6,90,10.6,90.1,10.6,90.2z"
					/>
				<path class="st20" d="M11,93.2c5.2-5.2,10.4-10.5,15.5-15.7l-0.1-0.1C21.2,82.6,16.1,87.8,10.9,93C10.9,93.1,10.9,93.2,11,93.2z
					"/>
				<path class="st20" d="M11.5,95.7c0,0.1,0,0.1,0,0.2c4.9-4.9,9.8-9.9,14.8-14.8L26.1,81C21.2,85.9,16.3,90.8,11.5,95.7
					C11.5,95.7,11.5,95.7,11.5,95.7z"/>
				<g>
					<g>
						<polygon class="st20" points="70.1,40.3 70,40.1 71.3,38.8 71.4,38.9 						"/>
					</g>
				</g>
				<g>
					<g>
						<polygon class="st20" points="69.5,34.9 69.4,34.8 70.4,33.7 70.5,33.9 						"/>
					</g>
				</g>
				<g>
					<path class="st20" d="M25.5,85c-13.9,13.9,2.2-2.1-11.6,11.9L14,97c13.9-14.1-2.3,2,11.6-11.9L25.5,85z"/>
				</g>
				<g>
					<g>
						<path class="st20" d="M69.4,44.6l-0.1-0.1c0.7-0.7,0.9-1,1.6-1.7L71,43C70.4,43.7,70.1,44,69.4,44.6z"/>
					</g>
				</g>
				<g>
					<g>
						<path class="st20" d="M17.8,96.3l-0.1-0.1c3.6-3.6,3.7-3.8,7.6-7.8l0.1,0.1C21.6,92.4,21.4,92.7,17.8,96.3z"/>
					</g>
				</g>
				<g>
					<g>
						<polygon class="st20" points="68.3,48.7 68.2,48.6 70.8,46 70.9,46.1 						"/>
					</g>
				</g>
				<g>
					<g>
						<polygon class="st20" points="22,95.5 21.8,95.4 25,92.2 25.1,92.3 						"/>
					</g>
				</g>
				<g>
					<g>
						<path class="st20" d="M67.8,52.7l-0.1-0.1c4.2-4.2-1.8,1.7,2.4-2.5l0.1,0.1C66,54.5,72,48.5,67.8,52.7z"/>
					</g>
				</g>
				<g>
					<g>
						<path class="st20" d="M57.1,66.9l-0.1-0.1c3.5-3.5,8.2-8.3,11.7-11.9l0.1,0.1C65.3,58.6,60.5,63.4,57.1,66.9z"/>
					</g>
				</g>
				<path class="st20" d="M103.2,23.4c-0.6,0.6-1.2,1.2-1.8,1.8l0.1,0.1c0.6-0.6,1.2-1.2,1.8-1.8C103.3,23.5,103.3,23.5,103.2,23.4z
					"/>
				<g>
					<g>
						<path class="st20" d="M57.9,69.5l-0.1-0.1c3.3-3.4,6.9-7,9.8-10l0.1,0.1C64.8,62.5,61.3,66.1,57.9,69.5z"/>
					</g>
				</g>
				<path class="st20" d="M104.6,25.4c-1,1-2,2-3.1,3.1l0.1,0.1c1-1,2.1-2.1,3.1-3.1C104.7,25.4,104.7,25.4,104.6,25.4z"/>
				<g>
					<g>
						<path class="st20" d="M58.4,72.3l-0.1-0.1l0.1-0.1c2.6-2.7,4.8-4.9,7.5-7.6l0.1,0.1C63.3,67.3,61.2,69.5,58.4,72.3L58.4,72.3z
							"/>
					</g>
				</g>
				<path class="st20" d="M106.3,27.1C106.3,27.1,106.3,27.1,106.3,27.1c-1.6,1.5-3.2,3.1-4.8,4.7l0.1,0.1
					C103.3,30.4,104.8,28.8,106.3,27.1C106.4,27.2,106.4,27.2,106.3,27.1z"/>
				<g>
					<g>
						<path class="st20" d="M58.7,75.3l-0.1-0.1c1.8-1.9,4.3-4.4,6.8-6.8l0.1,0.1C63,71,60.6,73.4,58.7,75.3z"/>
					</g>
				</g>
				<path class="st20" d="M107.8,28.9c-2.1,2.1-4.1,4.1-6.1,6.2l0.1,0.1c2-2,4-4,6.1-6.1C107.9,29,107.9,29,107.8,28.9z"/>
				<g>
					<g>
						<path class="st20" d="M59.6,77.7l-0.1-0.1c1.9-1.9,3.8-3.9,5.7-5.8l0.1,0.1C63.4,73.9,61.5,75.8,59.6,77.7z"/>
					</g>
				</g>
				<path class="st20" d="M109.1,31c-2.4,2.4-4.8,4.8-7.2,7.3l0.1,0.1c2.4-2.4,4.8-4.8,7.2-7.2C109.1,31.1,109.1,31,109.1,31z"/>
				<g>
					<g>
						<polygon class="st20" points="60.3,80.4 60.1,80.2 65.1,75.3 65.2,75.4 						"/>
					</g>
				</g>
				<path class="st20" d="M110.4,33c-2.5,2.6-5.1,5.1-7.8,7.9l0.1,0.1c2.7-2.8,5.3-5.3,7.8-7.9C110.5,33.1,110.4,33.1,110.4,33z"/>
				<g>
					<g>
						<path class="st20" d="M60.8,83.3l-0.1-0.1c1.4-1.4,2.9-2.8,4.3-4.3L65,79C63.6,80.4,62.2,81.8,60.8,83.3z"/>
					</g>
				</g>
				<path class="st20" d="M111.8,35c-2.9,2.9-5.8,5.8-8.8,8.8l0.1,0.1c3-3,5.9-5.9,8.7-8.8C111.8,35.1,111.8,35.1,111.8,35z"/>
				<g>
					<g>
						<path class="st20" d="M60.9,86.4l-0.1-0.1c1.3-1.4,2.7-2.7,4.1-4.1l0.1,0.1C63.6,83.7,62.2,85.1,60.9,86.4z"/>
					</g>
				</g>
				<path class="st20" d="M112.9,37.2c-3.2,3.2-6.5,6.5-9.7,9.7l0.1,0.1c3.3-3.3,6.5-6.5,9.7-9.7C112.9,37.3,112.9,37.2,112.9,37.2z
					"/>
				<g>
					<g>
						<path class="st20" d="M62.2,88.5l-0.1-0.1c0.8-0.8,1.6-1.6,2.4-2.4l0.1,0.1C63.8,86.9,63,87.7,62.2,88.5z"/>
					</g>
				</g>
				<path class="st20" d="M114,39.4c-3.3,3.3-6.7,6.7-10.2,10.3l0.1,0.1c3.5-3.6,6.9-6.9,10.2-10.3C114,39.5,114,39.4,114,39.4z"/>
				<path class="st20" d="M115.1,41.7c-3.6,3.6-7.2,7.2-10.9,11l0.1,0.1c3.7-3.8,7.3-7.4,10.8-10.9
					C115.1,41.8,115.1,41.8,115.1,41.7z"/>
				<path class="st20" d="M116.1,44.1c-3.8,3.8-7.5,7.6-11.3,11.4l0.1,0.1c3.8-3.8,7.6-7.6,11.3-11.4
					C116.1,44.2,116.1,44.1,116.1,44.1z"/>
				<path class="st20" d="M117.1,46.6c-3.8,3.8-7.5,7.6-11.6,11.6l0.1,0.1c4-4,7.8-7.8,11.5-11.6C117.1,46.7,117.1,46.6,117.1,46.6z
					"/>
				<path class="st20" d="M117.8,48.9c-3.9,3.9-7.8,7.9-11.8,11.8l0.1,0.1c4-4,7.9-7.9,11.8-11.8C117.9,49,117.9,49,117.8,48.9z"/>
				<path class="st20" d="M118.6,51.3c-4,4-7.9,8.1-11.9,12.2l0.1,0.1c4-4.1,7.9-8.1,11.9-12.1C118.7,51.4,118.7,51.4,118.6,51.3z"
					/>
				<path class="st20" d="M119.4,54c-3,3.1-6,6.1-8.9,9.1c-1.4,1.4-2.1,2.1-3.5,3.6l0.1,0.1c1.4-1.4,2.1-2.2,3.5-3.6
					c2.9-2.9,5.9-6,8.9-9.1C119.5,54.1,119.4,54.1,119.4,54z"/>
				<path class="st20" d="M120.3,56.6c-0.3,0.3-0.6,0.6-0.9,0.9c-4.3,4.3-7.9,8-12.2,12.4l0.1,0.1c4.3-4.3,7.9-8,12.2-12.4
					c0.3-0.3,0.5-0.5,0.8-0.8C120.3,56.8,120.3,56.7,120.3,56.6z"/>
				<path class="st20" d="M120.8,59.4c-4.3,4.3-8.8,8.8-13.5,13.5l0.1,0.1c4.6-4.7,9.1-9.2,13.4-13.5
					C120.8,59.5,120.8,59.5,120.8,59.4z"/>
				<path class="st20" d="M121.3,62.3c-3.4,3.4-6.8,6.8-10.2,10.2l-3.4,3.4l0.1,0.1l3.4-3.4c3.3-3.3,6.7-6.7,10.1-10.1
					C121.3,62.5,121.3,62.4,121.3,62.3z"/>
				<path class="st20" d="M121.7,65.1c-4.5,4.5-9.1,9.2-13.8,13.9l0.1,0.1c4.7-4.8,9.3-9.4,13.7-13.8
					C121.7,65.3,121.7,65.2,121.7,65.1z"/>
				<path class="st20" d="M122,68.2c-4.5,4.6-9.1,9.2-13.9,14l0.1,0.1c4.7-4.8,9.3-9.4,13.8-13.9C122,68.3,122,68.2,122,68.2z"/>
				<path class="st20" d="M122.3,71.2c-4.6,4.6-9.3,9.3-14.1,14.2l0.1,0.1c4.8-4.8,9.4-9.5,14-14.1
					C122.3,71.3,122.3,71.3,122.3,71.2z"/>
				<path class="st20" d="M122.7,74.1c-4.7,4.7-9.3,9.4-14.2,14.4l0.1,0.1c4.8-5,9.5-9.7,14.1-14.4
					C122.7,74.2,122.7,74.1,122.7,74.1z"/>
				<path class="st20" d="M122.8,77.6c-4.6,4.6-9.3,9.3-14.1,14.2l0.1,0.1c4.8-4.8,9.5-9.5,14-14.1
					C122.8,77.7,122.8,77.7,122.8,77.6z"/>
				<path class="st20" d="M122.8,80.8c-4.7,4.7-9.3,9.4-14,14.1l0.1,0.1c4.6-4.6,9.2-9.3,13.9-14C122.8,81,122.8,80.9,122.8,80.8z"
					/>
				<path class="st20" d="M122.5,84.5c-3.7,3.7-7.4,7.4-11.1,11.1l0.1,0.1c3.7-3.7,7.3-7.3,11-11C122.5,84.7,122.5,84.6,122.5,84.5z
					"/>
				<path class="st20" d="M122.2,88.1c-2.6,2.6-5.2,5.3-7.9,8l0.1,0.1c2.6-2.6,5.2-5.2,7.7-7.8C122.2,88.3,122.2,88.2,122.2,88.1z"
					/>
				<path class="st20" d="M121.5,92.2c-1.4,1.4-2.9,2.9-4.3,4.4l0.1,0.1c1.4-1.4,2.8-2.8,4.2-4.2C121.5,92.4,121.5,92.3,121.5,92.2z
					"/>
			</g>
		</g>
		<g>
			<path class="st20" d="M17.8,99.6c-0.7,0.2-1.1,0.3-1.8,0.5c-2.8,0.7-5.1,2.9-6,5.2c-0.1,0.2-0.2,0.5-0.2,0.7
				c0,0.1-0.1,0.2-0.1,0.4c0,0.3-0.1,0.5-0.1,0.7c0,0.9,0,1.4,0,2.3c0,1.9,0.8,3.4,2.1,4.5c0.2,0.2,0.5,0.3,0.7,0.5
				c1.4,0.8,2.1,1.2,3.5,2c0.4,0.2,0.6,0.3,0.9,0.6c0.9,0.6,1.4,1.5,1.4,2.6c0,0.5,0,0.8,0,1.4c0,0.3-0.2,0.7-0.4,0.9
				c-0.3,0.3-0.6,0.5-1,0.6c-0.8,0.2-1.4-0.2-1.4-0.9c0-1.4,0-2.1,0-3.4c-2.3,0.6-3.5,0.9-5.8,1.5c0,1.7,0,2.5,0,4.2
				c0,2.9,2.8,4.5,6.4,3.7c0.7-0.2,1.1-0.3,1.8-0.4c3.1-0.7,5.7-3.1,6.3-5.6c0.1-0.4,0.1-0.7,0.1-1.1c0-0.9,0-1.4,0-2.3
				c0-2.2-1-4.1-2.9-5.3c-1-0.6-1.5-0.9-2.6-1.6c-0.7-0.4-1.1-0.7-1.9-1.1c-0.6-0.3-1-0.8-1.2-1.4c-0.1-0.4-0.2-0.7-0.2-1.1
				c0-0.5,0-0.8,0-1.4c0-0.3,0.2-0.7,0.4-1c0.3-0.3,0.6-0.5,1-0.6c0.8-0.2,1.4,0.2,1.4,0.9c0,1.4,0,2.1,0,3.4c0,0,0,0,0,0
				c2.3-0.6,3.5-0.9,5.9-1.4c0-1.7,0-2.5,0-4.2C24.2,100.4,21.3,98.7,17.8,99.6z"/>
			<path class="st20" d="M27.3,97.8c-0.6,9.1-1.2,18.1-1.8,27.2c2.5-0.5,3.7-0.7,6.2-1.1c0.1-1.8,0.1-2.7,0.2-4.4
				c0.9-0.1,1.3-0.2,2.1-0.3c0.1,1.7,0.1,2.6,0.2,4.4c2.5-0.4,3.7-0.5,6.2-0.8c-0.6-9-1.2-18.1-1.9-27.1
				C34.7,96.2,31,96.9,27.3,97.8z M32,114.6c0.2-4.4,0.4-8.7,0.6-13.1c0.2,0,0.3-0.1,0.5-0.1c0.2,4.3,0.4,8.6,0.6,12.9
				C33,114.4,32.7,114.5,32,114.6z"/>
			<path class="st20" d="M52.5,105.4c-0.2,0-0.3,0-0.5,0c-1.3-3.7-2.6-7.3-3.9-11c-2.4,0.2-3.6,0.3-6,0.6c0,9.1,0,18.3,0,27.4
				c2.4-0.3,3.6-0.4,6-0.6c0-3.8,0-7.5,0-11.3c0.2,0,0.3,0,0.5,0c1.3,3.7,2.6,7.3,3.9,11c2.4-0.2,3.6-0.2,6-0.3c0-9.2,0-18.3,0-27.5
				c-2.4,0.1-3.6,0.1-6,0.3C52.5,97.8,52.5,101.6,52.5,105.4z"/>
			<path class="st20" d="M68.6,93.1c-0.8,0-1.1,0-1.9,0c-3.6,0-6.6,2.5-6.6,5.5c0,5.9,0,11.8,0,17.7c0,3,2.9,5.3,6.6,5.3
				c0.8,0,1.1,0,1.9,0c3.6,0,6.6-2.3,6.6-5.2c0-2.6,0-3.9,0-6.4c-2.4-0.1-3.6-0.1-6-0.2c0,2.3,0,3.4,0,5.6c0,0.7-0.7,1.3-1.5,1.3
				c-0.4,0-0.8-0.1-1.1-0.4c-0.3-0.2-0.4-0.5-0.4-0.9c0-5.4,0-10.8,0-16.2c0-0.3,0.2-0.6,0.4-0.9c0.3-0.2,0.7-0.4,1.1-0.4
				c0.8,0,1.5,0.6,1.5,1.3c0,2.2,0,3.3,0,5.6c2.4,0,3.6,0.1,6,0.2c0-2.5,0-3.8,0-6.4C75.2,95.7,72.3,93.1,68.6,93.1z"/>
			<path class="st20" d="M86,105.7c-1.2-0.1-1.8-0.2-3-0.2c0-3.7,0-7.5,0-11.2c-2.4-0.2-3.6-0.3-6-0.4c0,3.7,0,7.5,0,11.2
				c0,2,0,3,0,4.9c0,3.8,0,7.5,0,11.3c2.4,0.1,3.6,0.2,6,0.4c0-3.8,0-7.5,0-11.3c1.2,0.1,1.8,0.1,3,0.2c0,3.8,0,7.5,0,11.3
				c2.4,0.2,3.6,0.3,6,0.6c0-9.1,0-18.3,0-27.4c-2.4-0.3-3.6-0.5-6-0.7C86,98.2,86,102,86,105.7z"/>
			<path class="st20" d="M93.6,122.8c4.5,0.6,8.9,1.3,13.3,2.1c0-2,0-2.9,0-4.9c-2.9-0.6-4.4-0.8-7.4-1.3c0-2.5,0-3.8,0-6.2
				c2.6,0.4,3.9,0.7,6.4,1.2c0-1.9,0-2.9,0-4.8c-2.6-0.5-3.8-0.8-6.4-1.2c0-2.5,0-3.7,0-6.2c3,0.6,4.4,0.9,7.4,1.5
				c0-1.9,0-2.9,0-4.9c-4.4-1-8.8-1.8-13.3-2.6C93.6,104.6,93.6,113.7,93.6,122.8z"/>
			<path class="st20" d="M114.9,121.3c2.5-4.8,5.2-9.6,7.7-14.4c0-1.9,0-2.9,0-4.8c-4.5-1.2-9-2.4-13.5-3.5c0,2,0,2.9,0,4.9
				c2.9,0.7,4.3,1,7.2,1.8c0,0.2,0,0.3,0,0.4c-2.6,4.9-5.2,9.8-7.8,14.8c0,1.9,0,2.9,0,4.8c4.9,1,9.8,2.1,14.6,3.4c0-2,0-2.9,0-4.8
				c-3.3-0.9-4.9-1.3-8.3-2.1C114.9,121.6,114.9,121.5,114.9,121.3z"/>
			<g>
				<path class="st20" d="M62,27.7C62,27.7,62,27.7,62,27.7c0,0-0.1,0-0.1,0.1c0,0-0.1,0-0.1,0c0,0,0,0,0,0c0,0,0,0-0.1-0.1
					c-0.1,0-0.1,0-0.2,0c0,0-0.1,0.1-0.1,0.2l0,0l0,0l0,0c0,0.1,0.1,0.1,0.1,0.1l0,0c0,0,0.1,0,0.1,0c0,0,0,0,0,0c0,0,0,0,0,0
					c0,0,0,0,0,0c0,0,0.1,0.1,0.1,0.1c0,0,0.1,0,0.1,0c0,0,0,0,0,0c0.1,0,0.1,0,0.2-0.1l0,0l0-0.1v0c0-0.2-0.1-0.2-0.1-0.3
					C62,27.7,62,27.7,62,27.7z"/>
				<path class="st20" d="M62.9,28.1c0,0.1,0,0.1,0,0.1c0,0,0.1,0.1,0.1,0.1c0,0,0,0,0.1,0c0,0,0.1,0,0.1,0c0,0,0,0,0,0c0,0,0,0,0,0
					c0,0,0,0,0,0c0,0,0,0,0,0c0,0,0,0,0.1,0c0,0,0,0,0-0.1c0,0,0,0,0,0c0,0,0,0,0-0.1c0,0,0,0,0,0c0,0-0.1,0-0.1,0c0,0,0,0,0,0
					c0,0,0,0,0,0c0,0,0-0.1,0-0.1c0,0,0,0,0,0c0,0-0.1,0-0.1,0c0,0,0,0,0,0c-0.1,0-0.1,0-0.1,0.1v0C62.9,28,63,28,62.9,28.1
					C62.9,28,62.9,28.1,62.9,28.1z"/>
				<g>
					<path class="st20" d="M60.1,59.8c0.9-0.6,1.7-1.4,2.5-2c0.2-0.1,0.3-0.3,0.5-0.4c0.3-0.3,0.6-0.6,0.9-0.8
						c0.2-0.1,0.3-0.3,0.5-0.4c0.4-0.4,0.9-0.8,1.3-1.4c0.4-0.5,0.8-1.1,1-1.7c0.2-0.6,0.4-1.2,0.5-1.9v0c0.1-0.6,0.1-1.3,0.1-1.9
						c0-0.4,0-0.7-0.1-1c-0.1-0.4-0.2-0.7-0.4-0.9l0,0l-0.1,0.1l0,0C67,48,67,48.6,67,49.2c0,0.2,0,0.4,0,0.6c0,0.4,0,0.9-0.1,1.3
						c0,0.6-0.1,1.2-0.3,1.8c-0.2,0.5-0.5,1.1-1,1.6c-0.4,0.4-0.9,0.8-1.3,1.2l-0.1,0.1c-0.5,0.5-1,0.9-1.5,1.2
						c-0.1,0.1-0.2,0.2-0.3,0.2c-0.1,0.1-0.3,0.3-0.4,0.4c-0.2,0.2-0.4,0.4-0.7,0.7C60.9,58.8,60.4,59.2,60.1,59.8L60,59.7
						c0,0,0,0,0-0.1l0,0l-0.1,0.1l0,0c0,0.2,0,0.3,0,0.5c0,0.1-0.1,0.3-0.3,0.4c-0.1,0.1-0.2,0.1-0.3,0.2c-0.1,0-0.1,0.1-0.2,0.1
						L58.9,61c-0.1,0.1-0.2,0.2-0.4,0.3c-0.6,0.4-1.2,0.9-1.8,1.4c-0.2,0.2-0.5,0.4-0.7,0.6c-0.3,0.3-0.7,0.6-1,0.9
						c-0.3,0.2-0.6,0.4-1,0.6c-0.3,0.2-0.6,0.3-0.9,0.4L53,65.4c-0.8,0.4-1.5,0.7-2.1,1c-0.7,0.3-1.4,0.7-2,1.3
						c-1.1,1.2-1.6,3-1.3,4.5l0,0l0.1,0l0,0c0-1.5,0.5-3,1.6-4c0.5-0.5,1.2-0.9,1.8-1.3c0.3-0.2,0.6-0.3,0.9-0.5
						c0.1,0,0.1-0.1,0.2-0.1c0.1,0,0.1-0.1,0.2-0.1c0,0,0,0.1,0,0.1c0,0.1,0,0.1,0,0.2c0,0.1,0,0.1,0,0.2c0,0.1,0,0.1,0,0.2
						c0,0.1,0,0.1,0,0.2c0,0,0,0.1,0,0.1c0,0.1,0,0.1,0,0.2c0,0,0,0.1,0,0.1c0,0.1,0,0.2,0,0.2c0,0,0,0.1,0,0.1c0,0.1,0,0.2,0,0.2
						c0,0,0,0.1,0,0.1c0,0.1,0,0.2,0,0.3c0,0,0,0,0,0c0,0.1,0,0.2,0,0.3c0,0.3,0.1,0.7,0.1,1l0,0.3c0,0.3,0.1,0.5,0.1,0.8
						c0,0.2,0,0.4,0.1,0.6c0,0.2,0,0.3,0.1,0.5c0,0.3,0.1,0.6,0.1,0.8l0,0.1c0,0.2,0,0.4,0.1,0.6l0,0.7c0,0.4,0,0.8,0,1.2l0,0.1
						c0,0.4,0,0.9-0.1,1.4l-0.1,1.4l-0.1,1.5c-0.1,0.8-0.1,1.7-0.2,2.6c-0.1,1.6-0.1,3.5,0,5.4l0,0l0.1,0l0,0
						c0.2-1.9,0.3-3.6,0.4-5.4c0.1-0.9,0.1-1.8,0.1-2.7c0-0.4,0-0.9,0-1.3c0-0.5,0-0.9,0-1.4c0-0.2,0-0.3,0-0.5c0-0.3,0-0.6,0-0.9
						c0-0.3,0-0.5,0-0.8c0-0.2,0-0.4,0-0.6l0-1.4c0-0.4,0-0.8,0-1.4c0-0.2,0-0.5-0.1-0.7c0-0.2-0.1-0.5-0.1-0.7c0-0.3-0.1-0.7-0.2-1
						l-0.1-0.4c-0.1-0.8-0.3-1.7-0.2-2.7l0,0c0.2-0.1,0.4-0.2,0.5-0.3l0,0c0.1,0.2,0.1,0.3,0.2,0.5c0.1,0.2,0.1,0.4,0.3,0.6
						c0.1,0.2,0.2,0.4,0.3,0.6c0.1,0.2,0.2,0.4,0.3,0.6c0.1,0.2,0.2,0.4,0.3,0.6c0.1,0.2,0.2,0.4,0.3,0.6c0.1,0.2,0.1,0.4,0.2,0.6
						c0.1,0.2,0.1,0.4,0.2,0.6l0,0c0.1,0.4,0.2,0.8,0.3,1.3l0.1,0.6c0,0.2,0.1,0.5,0.1,0.6c0.1,0.2,0.1,0.4,0.2,0.7
						c0,0.1,0,0.2,0.1,0.2c0,0.1,0.1,0.2,0.1,0.3c0,0-0.1-0.1-0.1-0.1l0,0L55.8,74l0,0c0.1,0.4,0.3,0.9,0.4,1.3l0,0.1
						c0.1,0.2,0.2,0.5,0.2,0.7c0.1,0.2,0.2,0.4,0.3,0.7c0.1,0.1,0.1,0.3,0.2,0.4c0.1,0.3,0.3,0.6,0.4,1c0.1,0.5,0.2,1,0.3,1.5
						c0,0.5,0.1,1,0.1,1.5c0,0.4,0,0.7,0,1.1c0,0.1,0,0.2,0,0.4c0,0.2,0,0.4,0,0.6c0,0,0,0,0-0.1c0-0.2,0-0.4-0.1-0.5
						c-0.1-0.3-0.1-0.7-0.2-1l0,0l-0.1,0l0,0c-0.1,0.3-0.1,0.7-0.1,1c0,0.4,0,0.7,0.1,1c0,0.2,0.1,0.3,0.1,0.5
						c0,0.2,0.1,0.3,0.1,0.5c0.1,0.3,0.1,0.7,0.1,1c0,0.3,0.1,0.6,0.1,1l0.1,1c0.1,0.7,0.1,1.3,0.1,1.9l0,0l0.1,0l0,0
						c0.4-0.7,0.5-1.5,0.4-2c0-0.4-0.1-0.7-0.2-1c0-0.1-0.1-0.3-0.1-0.5c0-0.1-0.1-0.2-0.1-0.3c0-0.1,0-0.1-0.1-0.2
						c-0.1-0.3-0.2-0.6-0.2-0.9c0-0.1,0-0.2,0-0.3c0,0,0-0.1,0-0.1c0,0,0-0.1,0-0.1c0,0,0,0,0,0.1c0,0.6,0.2,1.1,0.3,1.5l0,0l0.1,0
						l0,0c-0.1-0.8,0-1.5,0.1-2.2c0-0.2,0.1-0.5,0.1-0.7c0-0.5,0-1,0-1.5c0-0.3-0.1-0.5-0.1-0.8c0-0.2-0.1-0.5-0.2-0.7l0-0.1
						c-0.1-0.5-0.3-0.9-0.4-1.4c-0.1-0.2-0.1-0.4-0.1-0.6c-0.1-0.3-0.1-0.6-0.2-0.8c-0.1-0.3-0.2-0.5-0.2-0.7
						c-0.1-0.3-0.2-0.5-0.3-0.7c0-0.1-0.1-0.2-0.1-0.2c0,0,0-0.1-0.1-0.1c0-0.1,0-0.2,0-0.3c0-0.1,0-0.1,0-0.2c0-0.1,0-0.2,0-0.3
						c0-0.1,0-0.1,0-0.2c0-0.1,0-0.2,0-0.3c0-0.1,0-0.2,0-0.2c0,0,0-0.1,0-0.1c0-0.1,0-0.3-0.1-0.4l0,0c0-0.2-0.1-0.4-0.2-0.6
						l-0.2-0.6l0,0c-0.1-0.2-0.1-0.4-0.2-0.6c-0.1-0.1-0.1-0.3-0.2-0.4c0-0.1-0.1-0.1-0.1-0.2l0,0c-0.1-0.2-0.2-0.4-0.2-0.6
						c-0.1-0.2-0.2-0.4-0.2-0.6c-0.1-0.2-0.1-0.4-0.2-0.6c-0.1-0.2-0.1-0.4-0.2-0.6c-0.2-0.5-0.4-0.9-0.6-1.2
						c-0.1-0.2-0.3-0.4-0.4-0.6c-0.1-0.2-0.2-0.3-0.4-0.4c0.3-0.2,0.5-0.3,0.8-0.5c0.3-0.2,0.6-0.4,1-0.6c0.3-0.3,0.7-0.5,1-0.7
						c0.3-0.2,0.6-0.4,0.9-0.6c0.7-0.5,1.3-1,1.8-1.5c0.1-0.1,0.2-0.2,0.3-0.3l0.2-0.2c0.1-0.1,0.2-0.2,0.4-0.4
						c0.2-0.2,0.3-0.4,0.3-0.6c0-0.1,0-0.2,0-0.2c0,0,0,0,0,0C60,59.9,60,59.9,60.1,59.8C60,59.8,60,59.8,60.1,59.8L60.1,59.8
						L60.1,59.8z"/>
					<path class="st20" d="M57.5,28.6c0,0.1,0,0.2,0,0.3l0,0.1c0,0.1,0,0.2,0,0.4c0,0.1,0,0.3,0.1,0.4c0,0.1,0.1,0.2,0.2,0.2
						c0,0,0,0,0,0c0,0,0.1,0,0.1,0.1c0,0,0,0,0,0c0,0,0,0,0.1,0c0,0.1,0,0.2,0,0.3c0,0.2,0.1,0.4,0.2,0.6c0.1,0.1,0.1,0.2,0.2,0.3
						c0.1,0.1,0.1,0.2,0.2,0.3c0.1,0.2,0.2,0.3,0.2,0.5l0,0.1c0,0.1,0.1,0.2,0.2,0.3c0.1,0.1,0.1,0.2,0.2,0.3
						c0.2,0.2,0.4,0.3,0.5,0.5c0.1,0.1,0.3,0.2,0.4,0.2c0,0,0.1,0,0.1,0.1c0.2,0.1,0.4,0.2,0.5,0.3l0,0l0.1-0.1l0,0
						c0-0.3-0.2-0.5-0.3-0.7c-0.2-0.2-0.3-0.3-0.5-0.4c-0.1,0-0.1-0.1-0.2-0.1c-0.1-0.1-0.2-0.1-0.3-0.2l0,0
						c-0.1-0.1-0.3-0.2-0.4-0.4c0,0-0.1-0.1-0.1-0.1c0,0-0.1-0.1-0.1-0.1c-0.1-0.1-0.1-0.2-0.1-0.3c0-0.1-0.1-0.3-0.1-0.4
						c0-0.1,0-0.1,0-0.2c0-0.2-0.1-0.4-0.2-0.6c-0.1-0.2-0.2-0.4-0.3-0.6l0,0l-0.1,0l0,0c0,0,0,0.1,0,0.1c0,0,0,0,0,0c0,0,0,0,0,0
						c0,0,0-0.1,0-0.1c0-0.1,0-0.2,0-0.3l0-0.1c0-0.1,0-0.2,0-0.3c0-0.1,0-0.3,0-0.4c0-0.3-0.1-0.5-0.2-0.8c0-0.2-0.1-0.3-0.1-0.5
						c0-0.1-0.1-0.2-0.1-0.3c-0.1-0.3-0.1-0.5,0-0.7c0-0.1,0.1-0.1,0.2-0.1l0,0c0.1,0,0.3-0.1,0.4-0.1c0.3-0.1,0.5-0.2,0.7-0.3
						c0.1-0.1,0.2-0.1,0.3-0.2c0,0,0.1,0,0.1-0.1c0,0,0.1-0.1,0.1-0.1c0,0,0,0,0,0c-0.1,0.2-0.2,0.3-0.3,0.5l-0.1,0.1
						c-0.1,0.1-0.1,0.3-0.2,0.4c-0.1,0.2-0.1,0.4-0.1,0.6c0,0.2,0.1,0.5,0.3,0.6l0,0l0.1-0.1l0,0c-0.1-0.1-0.1-0.3,0-0.5
						c0-0.2,0.1-0.3,0.2-0.5c0.1-0.1,0.1-0.3,0.2-0.5c0.1-0.2,0.1-0.3,0.2-0.6c0-0.2,0.1-0.4,0.2-0.5c0.1-0.1,0.3-0.1,0.4-0.1
						c0,0,0,0,0.1,0c0.1,0,0.2,0,0.2,0c0.1,0,0.2,0,0.3,0.1c0.1,0,0.1,0,0.2,0.1c0.1,0,0.2,0.1,0.4,0.1l0,0l0.1-0.1l0,0
						c-0.1-0.2-0.3-0.3-0.5-0.4c-0.2-0.1-0.4-0.2-0.7-0.1c-0.2,0-0.4,0.1-0.6,0.3c-0.1,0.1-0.1,0.2-0.2,0.2c0,0,0,0,0,0l0,0l0,0
						c-0.3,0-0.6,0.1-0.8,0.2c-0.2,0.1-0.5,0.2-0.7,0.3c-0.1,0.1-0.2,0.2-0.3,0.2c0,0,0,0-0.1,0c0,0-0.1,0.1-0.1,0.1
						c-0.1,0.1-0.1,0.2-0.1,0.2c-0.1,0.3-0.1,0.5-0.1,0.8c0,0.3,0,0.5,0,0.8L57.5,28.6z"/>
					<path class="st20" d="M68.7,39.3c0-0.1-0.1-0.1-0.1-0.2c-0.1,0-0.1,0-0.2-0.1l-0.1,0c-0.1,0-0.1,0-0.1,0C68.1,39,68,39,68,39
						c0,0-0.1,0-0.1,0c-0.1,0-0.2,0-0.2,0c0,0-0.1,0-0.1,0l0,0c-0.1,0-0.2,0-0.3-0.1l0,0L67,38.9l0,0c0,0.2,0.1,0.4,0.3,0.5
						c0,0,0,0,0,0c-0.1,0-0.2,0-0.2,0.1l0,0l0,0.1l0,0c0.2,0.3,0.6,0.4,0.8,0.4c0,0,0,0,0,0c0.1,0,0.1,0,0.2,0c0.1,0,0.1,0,0.2-0.1
						c0,0,0,0,0,0.1c0,0,0,0,0,0.1c0,0.1,0,0.1,0,0.2c0,0.2,0.1,0.3,0.2,0.4c0,0,0,0.1,0.1,0.1c0.1,0.2,0.1,0.3,0.1,0.4
						c0,0.2,0,0.3,0,0.5l0,0.1c0,0.3,0,0.7,0,1.1c0,0.1,0,0.1,0,0.2c0,0.1,0,0.2,0,0.4c0,0.2,0,0.4-0.1,0.5c0,0.1-0.1,0.2-0.2,0.3
						c0,0-0.1,0.1-0.1,0.1c-0.1,0.1-0.1,0.2-0.2,0.3c-0.1,0.1-0.1,0.2-0.1,0.3C68.1,45,68,45.2,68,45.3l0,0.1c0,0.2-0.1,0.3-0.1,0.6
						c-0.1,0.6-0.2,1.4-0.2,2.3v0l0.1,0l0,0c0.3-0.6,0.5-1.3,0.7-2.2c0.1-0.2,0.1-0.4,0.1-0.6c0-0.1,0-0.1,0-0.2
						c0-0.1,0-0.3,0.1-0.4c0-0.1,0-0.1,0.1-0.2c0-0.1,0.1-0.1,0.1-0.2l0,0c0.1-0.1,0.2-0.4,0.2-0.6c0-0.2,0-0.4,0-0.6l0-0.1
						c0-0.2-0.1-0.3-0.1-0.5c0-0.2,0.1-0.4,0.2-0.7c0-0.1,0.1-0.3,0.1-0.4c0-0.1,0-0.2,0.1-0.3c0,0,0,0,0-0.1c0-0.1,0-0.2,0-0.2
						c0-0.1,0-0.2-0.1-0.3c-0.1-0.1-0.1-0.3-0.2-0.4c-0.1-0.1-0.1-0.2-0.2-0.2c-0.1-0.1-0.1-0.2-0.2-0.2c0,0-0.1-0.1-0.1-0.2
						c0,0,0,0,0-0.1c0,0,0-0.1,0-0.1c0,0,0,0,0,0C68.7,39.6,68.8,39.4,68.7,39.3z"/>
					<path class="st20" d="M36.8,43.4C36.9,43.4,36.9,43.4,36.8,43.4c0.1,0,0.1,0,0.1,0c0.1,0,0.1,0,0.2,0.1c0,0,0.1,0,0.1,0
						c0.1,0,0.1,0,0.2-0.1c0.1-0.1,0.1-0.2,0.1-0.3c0-0.1,0-0.1,0-0.1l-0.1-0.4c-0.1-0.3-0.2-0.6-0.2-1c-0.1-0.4-0.1-0.7-0.1-1
						c0-0.3,0-0.7,0.1-1l0-0.1c0-0.1,0.1-0.3,0.1-0.5c0-0.2,0-0.4-0.1-0.6c0-0.1-0.1-0.1-0.1-0.1c-0.1-0.1-0.2-0.2-0.3-0.3
						c-0.1,0-0.1-0.1-0.2-0.1c0,0-0.1,0-0.1-0.1c-0.1,0-0.1-0.1-0.2-0.1c-0.3-0.2-0.5-0.3-0.6-0.6l0,0l-0.1,0l0,0
						c0,0.2,0.1,0.4,0.2,0.5c0.1,0.2,0.3,0.3,0.4,0.4c0.1,0.1,0.2,0.1,0.2,0.2c0.2,0.1,0.4,0.3,0.5,0.4c0,0.1,0.1,0.1,0.1,0.2
						c0,0.2,0,0.4,0,0.7l-0.1,1c0,0.4,0,0.7,0,1c0,0.3,0.1,0.6,0.1,1c0,0,0,0.1,0,0.1c0,0.1,0,0.1,0,0.2c0,0,0,0,0,0.1
						c0,0,0,0-0.1,0c0,0-0.1,0-0.2,0c-0.1,0-0.2,0-0.3,0.1c-0.1,0.1-0.2,0.2-0.2,0.4c0,0.1,0,0.1,0,0.2c-0.1-0.1-0.2-0.1-0.3-0.2
						l0,0L36,43.5l0,0c0.2,0.2,0.4,0.4,0.7,0.5l0.4,0.1l0,0l0,0l-0.2-0.4C36.8,43.6,36.8,43.5,36.8,43.4
						C36.8,43.5,36.8,43.4,36.8,43.4z"/>
					<path class="st20" d="M48.5,51.1c-0.2,0.2-0.4,0.3-0.6,0.5l-0.2,0.1c-0.3,0.2-0.5,0.4-0.8,0.5c-0.3,0.2-0.6,0.3-0.9,0.3
						c-0.4,0-0.6,0-0.9-0.2l0,0L45,52.4l0,0c0.1,0.2,0.2,0.3,0.4,0.4c0.2,0.1,0.4,0.2,0.6,0.2c0.1,0,0.1,0,0.2,0c0,0,0.1,0,0.1,0
						c0.1,0,0.1,0,0.2,0l0.1,0c0.2,0,0.4-0.1,0.6-0.2c0.4-0.2,0.7-0.4,0.9-0.7c0.3-0.3,0.5-0.6,0.7-0.8c0.2-0.2,0.4-0.5,0.7-0.8
						c0.2-0.2,0.5-0.3,0.7-0.4c0.1,0,0.1-0.1,0.2-0.1c0.2-0.1,0.3-0.2,0.5-0.2c0.1-0.1,0.3-0.2,0.4-0.2c0.1-0.1,0.3-0.1,0.4-0.2
						c0.1-0.1,0.2-0.1,0.4-0.2c0,0,0,0,0,0c0,0.2,0,0.4-0.1,0.6c0,0.2-0.1,0.4-0.2,0.5c-0.1,0.2-0.2,0.5-0.2,0.7
						c-0.1,0.4-0.1,0.9,0,1.4c0.1,0.2,0.1,0.5,0.2,0.7c0.1,0.2,0.1,0.4,0.2,0.5l0,0c0,0.2,0.1,0.4,0.1,0.6c0,0.2,0,0.4,0,0.6l0,0
						l0.1,0l0,0c0.1-0.4,0.2-0.8,0.1-1.3c0-0.2-0.1-0.4-0.1-0.6c-0.1-0.2-0.1-0.5-0.1-0.7c-0.1-0.4-0.1-0.8,0.1-1.2
						c0.1-0.2,0.1-0.4,0.2-0.6c0.1-0.2,0.1-0.4,0.2-0.6c0.1-0.2,0.1-0.5,0.1-0.7c0-0.2,0-0.4,0-0.7l0,0c0-0.2,0-0.4,0-0.6
						c0-0.2,0.1-0.4,0.1-0.6c0.2-0.3,0.5-0.6,0.9-0.6c0,0,0,0,0,0c0.1,0,0.1,0,0.2,0.1l0,0l0.1,0c0,0,0,0,0.1,0.1l0.1,0.1
						c0.1,0.1,0.1,0.1,0.2,0.2c0,0,0.1,0.1,0.2,0.1c0.1,0,0.2,0,0.3,0l0.1,0l0-0.1c0.1-0.2,0.1-0.5,0-0.8c-0.1-0.2-0.1-0.4-0.2-0.7
						l0,0c-0.1-0.2-0.2-0.4-0.2-0.7c-0.1-0.3-0.1-0.5-0.1-0.7c0-0.4,0.2-0.9,0.4-1.3c0.2-0.4,0.6-0.8,0.8-1.1
						c0.6-0.7,1.2-1.4,1.7-2.1l0.1-0.1c0.1-0.1,0.3-0.3,0.5-0.4c0.2-0.1,0.5-0.1,0.6-0.1c0.1,0,0.2,0,0.3,0c0.1,0,0.3,0,0.4,0
						c0.3,0,0.5,0,0.7-0.1l0,0l0-0.1l0,0c-0.2,0-0.4,0-0.7,0c-0.1,0-0.2,0-0.3-0.1c-0.1,0-0.3-0.1-0.4-0.1c-0.2,0-0.5,0-0.8,0.1
						c-0.3,0.1-0.5,0.3-0.7,0.5c-0.1,0.1-0.2,0.2-0.3,0.3c0,0,0,0,0,0c0,0-0.1,0.1-0.1,0.1c0,0,0,0,0,0c0-0.1,0-0.1,0-0.2
						c0,0,0,0,0-0.1c0-0.1,0.1-0.2,0.1-0.2c0.1-0.2,0.2-0.3,0.4-0.5c0,0,0.1-0.1,0.1-0.1c0.3-0.4,0.6-0.8,1-1.3
						c0.1-0.2,0.3-0.4,0.4-0.7c0,0,0-0.1,0.1-0.1c0-0.1,0.1-0.1,0.1-0.2c0,0,0,0,0.1-0.1c0,0,0.1,0,0.1,0c0.5-0.1,1-0.1,1.5-0.1
						c0.1,0,0.2,0,0.4,0.1c0,0,0.1,0,0.1,0c0.1,0,0.2,0,0.3,0c0.1,0,0.3,0,0.4-0.1c0.1,0,0.2-0.1,0.4-0.1c0,0,0,0,0,0
						c0.2,0,0.4,0.1,0.7,0.2c0.1,0.1,0.2,0.1,0.3,0.2c0.1,0.1,0.2,0.1,0.3,0.2c0.3,0.1,0.5,0.2,0.7,0.3c0.3,0.1,0.5,0.2,0.7,0.3
						c0.5,0.2,1,0.4,1.5,0.5l0,0l0.1-0.1l0,0c-0.5-0.3-0.9-0.6-1.4-0.8c-0.2-0.1-0.4-0.2-0.7-0.3c-0.2-0.1-0.5-0.2-0.7-0.3
						c-0.3-0.1-0.5-0.2-0.8-0.3c-0.2-0.1-0.5-0.1-0.8-0.1c-0.1,0-0.2,0-0.4,0.1c-0.1,0-0.3,0.1-0.4,0.1c-0.1,0-0.2-0.1-0.3-0.1l0,0
						c-0.1,0-0.2-0.1-0.2-0.1c0,0,0,0,0,0c0.1,0,0.1-0.1,0.2-0.1c0.1-0.1,0.1-0.2,0.2-0.4c0-0.2,0-0.3,0-0.4c0-0.1,0-0.2,0-0.3
						c0-0.2,0.1-0.3,0.2-0.4c0.1-0.1,0.3-0.1,0.6-0.2c0.1,0,0.3,0,0.4,0c0.1,0,0.2,0,0.2,0l0.7-0.1c0.4,0,0.9-0.1,1.4,0
						c0.4,0,0.9,0.1,1.4,0.2c0.5,0.1,0.9,0.3,1.3,0.4c0.4,0.1,0.8,0.3,1.2,0.5c0.3,0.3,0.5,0.6,0.5,0.9l0,0.3l0.3,0
						c0,0.1-0.1,0.2-0.1,0.3c-0.1,0.3-0.2,0.5-0.2,0.8c0,0.1,0,0.3,0,0.4c0,0.1,0,0.2,0,0.3c0,0.1-0.1,0.2-0.2,0.2
						c-0.1,0-0.2,0-0.2-0.1l0,0l-0.1,0l0,0c0,0.1,0.1,0.2,0.2,0.2c0.1,0,0.1,0,0.2,0c0,0,0,0,0,0c0,0,0,0,0.1,0c0.1,0,0.2,0,0.2-0.1
						c0.1-0.1,0.1-0.1,0.2-0.2c0.1-0.1,0.1-0.3,0.1-0.4l0,0v0c0-0.1,0-0.3,0.1-0.4c0-0.1,0.1-0.2,0.1-0.4c0,0,0,0,0,0
						c0-0.1,0.1-0.2,0.1-0.3c0.1-0.2,0.3-0.5,0.4-0.6l0.3-0.4l-0.7-0.1c0-0.2-0.1-0.4-0.2-0.5c-0.1-0.2-0.3-0.4-0.6-0.6
						c-0.4-0.3-0.9-0.4-1.4-0.5c-0.5-0.1-1-0.2-1.4-0.2l-1.4-0.1c-0.2,0-0.3,0-0.5-0.1c-0.3,0-0.6-0.1-0.9-0.1c-0.3,0-0.5,0-0.7,0
						c-0.1,0-0.2,0-0.3,0c0,0-0.1,0-0.1,0c-0.1,0-0.3,0-0.4,0c-0.2,0-0.5,0.1-0.8,0.3c-0.1,0.1-0.2,0.2-0.3,0.3
						c-0.1,0.1-0.1,0.3-0.1,0.5c0,0.2,0.1,0.3,0.1,0.4c0,0.1,0.1,0.2,0.1,0.3c0,0.1,0,0.2,0,0.3c0,0.1-0.1,0.1-0.2,0.2l0,0l0,0.1
						c-0.1,0-0.1,0-0.2,0c0,0-0.1,0-0.1,0c-0.1,0-0.3,0-0.4-0.1c-0.3,0-0.6,0-0.8,0c-0.1,0-0.2,0-0.3,0.1c-0.1,0-0.2,0.1-0.3,0.2
						c-0.1,0.1-0.1,0.2-0.2,0.2c0,0,0,0.1-0.1,0.1c-0.2,0.2-0.3,0.5-0.5,0.6c-0.3,0.4-0.6,0.9-0.8,1.3l0,0.1
						c-0.1,0.2-0.3,0.4-0.3,0.7c0,0.1-0.1,0.2-0.1,0.2c0,0,0,0.1,0,0.1c0,0,0,0.1,0,0.1c0,0,0,0.1,0,0.1c0,0,0,0.1,0,0.1
						c0,0,0,0,0,0.1c0,0,0,0.1,0,0.1l-0.1,0.1c-0.1,0.1-0.2,0.2-0.3,0.3l-0.1,0.1c-0.3,0.3-0.6,0.7-0.8,1.1
						c-0.3,0.4-0.5,0.8-0.8,1.2c-0.2,0.5-0.4,1-0.4,1.4c0,0.2,0,0.5,0.1,0.7c0.1,0.2,0.1,0.5,0.2,0.7l0,0.1c0.1,0.2,0.1,0.4,0.2,0.6
						c0,0.2,0,0.3,0,0.5c-0.1-0.1-0.1-0.2-0.2-0.3l0,0c0,0-0.1-0.1-0.1-0.1l0,0c0,0,0,0-0.1-0.1l-0.1-0.1c-0.1-0.1-0.3-0.1-0.4-0.1
						c-0.2,0-0.5,0.1-0.7,0.2c-0.2,0.1-0.4,0.3-0.5,0.6C52,47.7,52,48.1,52,48.5l0,0.1c0,0.1,0,0.3,0,0.4c0,0,0,0,0,0
						c0,0-0.1,0-0.1,0c0,0-0.1,0-0.1,0c0,0,0,0,0,0c-0.2,0-0.5,0.1-0.7,0.1c-0.4,0.1-0.7,0.3-1,0.5c-0.2,0.2-0.4,0.4-0.6,0.5
						c-0.1,0.1-0.1,0.1-0.2,0.2C49,50.7,48.7,50.9,48.5,51.1z"/>
					<path class="st20" d="M83.1,69.5L83.1,69.5c1.1,0.1,2.1,0.2,3.1,0.2h0h0c0.5,0,0.9,0,1.4,0c0.4,0,0.7,0,1.1-0.1
						c0.2,0,0.4,0,0.6-0.1c0,0,0,0,0.1,0c0.1,0,0.2,0,0.3-0.1c0.1-0.1,0.1-0.2,0.2-0.3l0-4.4c0-0.1,0-0.2-0.1-0.3
						c0-0.1-0.1-0.1-0.1-0.1c0,0-0.1-0.1-0.2-0.1c-0.1,0-0.2,0-0.4,0c-0.1,0-0.1,0-0.2,0l-4.4,0.1c-0.1,0-0.1,0-0.2,0
						c-0.1,0-0.3,0-0.4,0c-0.1,0-0.2,0.1-0.3,0.2c0,0,0,0,0,0c-0.1-0.1-0.3-0.2-0.5-0.2l0,0l0,0.2l0,0c0.2,0,0.4,0.2,0.4,0.4l0,0.1
						l0.1-0.1l0.1,0.2l0.1,0l-0.1-0.2l0.1,0l0,0c0,0,0,0,0-0.1c0,0,0,0,0,0c0,0,0,0,0.1,0c0.1,0,0.2,0,0.3,0c0.1,0,0.1,0,0.2,0
						l1.1,0.1c0.2,0,0.5,0,0.7,0c0.5,0,1,0.1,1.5,0.1l1.3,0c0,0.2,0,0.4,0,0.6c0,0.5,0,1,0,1.5l0,1.9c-0.1,0-0.2,0-0.3,0
						c-0.4,0-0.7,0.1-1.1,0.1c-0.6,0-1.4,0.1-2.2,0.1l-1.1,0c-0.2,0-0.4,0-0.6,0l-0.1,0l-0.1-0.8c-0.1-0.5-0.1-0.8-0.2-1.2
						c-0.1-0.8-0.3-1.6-0.4-2.4l0,0l-0.2,0v0L83.1,69.5L83.1,69.5z"/>
					<path class="st20" d="M27.2,89.8L27.2,89.8l0.1,0l0,0c-0.4-1.1-0.4-2.5,0.1-3.9c0.2-0.6,0.4-1.2,0.7-1.9
						c0.1-0.2,0.2-0.5,0.3-0.7c0.2-0.4,0.3-0.7,0.5-1.1c0.2-0.6,0.5-1.2,0.9-1.9c0.1-0.3,0.3-0.5,0.4-0.8c0.2-0.4,0.4-0.7,0.5-1.1
						c0.3-0.6,0.5-1.2,0.7-2c0.2-0.8,0.4-1.4,0.4-2l0,0l-0.1,0l0,0c-0.2,0.5-0.4,1-0.6,1.6l-0.3,0.8c-0.2,0.5-0.4,1-0.5,1.5
						c-0.1,0.2-0.1,0.3-0.2,0.5c-0.2,0.5-0.3,1-0.5,1.4c-0.2,0.6-0.6,1.2-1,1.8c-0.4,0.6-0.7,1.2-1,1.8c-0.4,0.7-0.6,1.3-0.8,2
						c-0.1,0.6-0.2,1.1-0.2,1.6c0,0.2,0,0.3,0,0.5C26.6,88.5,26.8,89.2,27.2,89.8z"/>
					<path class="st20" d="M67.9,8.4h-0.1l0,0c0,0.6-0.1,1.3-0.1,1.8l0,0.3c0,0.5-0.1,1-0.1,1.5l0,0l0.1,0l0,0
						c0-0.1,0.1-0.2,0.1-0.3c0-0.1,0.1-0.3,0.1-0.4c0-0.1,0-0.2,0.1-0.2c0-0.1,0-0.2,0.1-0.3c0-0.1,0-0.1,0-0.2c0-0.1,0-0.2,0-0.3
						c0-0.1,0-0.1,0-0.2l0-0.1c0-0.1,0-0.2,0-0.4c0,0,0-0.1,0-0.1c0-0.1,0-0.2,0-0.3C68,9,68,8.7,67.9,8.4L67.9,8.4z"/>
					<path class="st20" d="M67.6,8.1l0.2,0l0-0.2c0-0.4-0.1-0.8,0-1.2c0-0.2,0.1-0.4,0.2-0.6L68,6l-0.1,0c-0.1,0-0.3,0-0.4,0l0,0
						l0,0c-0.1,0.2-0.1,0.4-0.1,0.6c0,0.5,0.1,0.9,0.2,1.4L67.6,8.1z"/>
					<path class="st20" d="M103,92c0,0.1,0,0.1,0,0.2c0,0.1,0.1,0.3,0.1,0.4c0.1,0.2,0.1,0.4,0.2,0.6l0,0c0.1,0.2,0.1,0.3,0.2,0.5
						l0,0l0.1,0l0,0c0-0.2,0-0.4,0-0.5l0,0c0-0.2,0-0.4,0-0.6c0-0.1,0-0.3,0-0.4c0-0.1,0-0.1,0-0.2c0-0.2,0-0.4,0-0.6
						c0-0.4-0.1-0.8-0.1-1.2c0-0.3-0.1-0.7-0.1-1c-0.1-0.7-0.1-1.5-0.1-2.2c0-0.7,0-1.4,0.1-2.2l0,0l-0.2,0l0,0
						c-0.2,0.7-0.3,1.4-0.4,2.2c-0.1,0.8-0.1,1.5-0.1,2.3l0,0.3c0,0.7,0,1.4,0.1,2C102.9,91.6,102.9,91.8,103,92z"/>
					<path class="st20" d="M94.1,84.2c0.2-0.2,0.4-0.4,0.5-0.6c0.4-0.4,0.7-0.8,1-1.2c0.3-0.4,0.7-0.8,1-1.2c0.4-0.5,0.6-1,0.8-1.4
						c0.1-0.3,0.2-0.5,0.2-0.8c0-0.3,0-0.6,0-0.8l0-0.1c0-0.2,0-0.4,0-0.7c0-0.3,0.1-0.5,0.2-0.7l0,0l-0.1-0.1l0,0
						c-0.1,0.2-0.2,0.5-0.2,0.8c0,0.2,0,0.5,0,0.7l0,0.1c0,0.2,0,0.5,0,0.8c0,0.2-0.1,0.5-0.2,0.7c-0.4,0.9-1,1.6-1.7,2.4l-0.1,0.1
						c-0.3,0.4-0.7,0.8-1.1,1.1c-0.2,0.2-0.4,0.4-0.6,0.5l-0.3,0.3c-0.1,0.1-0.2,0.2-0.3,0.2c-0.1,0.1-0.2,0.1-0.2,0.1c0,0,0,0,0,0
						c0,0,0,0,0,0c0,0,0,0,0,0c0-0.1-0.1-0.3-0.1-0.4c0-0.1,0-0.2,0-0.2l-0.5-2.3l-0.5,0.6c-0.3,0.4-0.5,0.7-0.8,1
						c-0.2,0.2-0.3,0.3-0.5,0.4c-0.2,0.1-0.3,0.2-0.5,0.3c-0.4,0.1-0.8,0.1-1.1,0c-0.1,0-0.1-0.1-0.2-0.1c-0.1-0.1-0.3-0.1-0.4-0.2
						c-0.1,0-0.3-0.1-0.5-0.1c-0.2,0-0.4,0.1-0.5,0.3C87.1,83.8,87,84,87,84.2c0,0.1,0,0.3,0,0.4c0,0.1,0,0.3,0.1,0.4
						c0,0.1,0,0.2,0.1,0.3l0,0.1c0.1,0.5,0.3,0.9,0.5,1.3c0.4,0.9,0.9,1.7,1.4,2.4l0,0l0.1-0.1l0,0c-0.4-0.9-0.8-1.7-1-2.5
						c-0.1-0.5-0.3-0.9-0.3-1.3l0-0.1c0-0.1,0-0.2,0-0.3c0-0.1,0-0.2,0-0.3c0-0.2,0.1-0.3,0.1-0.4c0,0,0,0,0.1,0c0,0,0.1,0,0.1,0
						c0.1,0,0.2,0.1,0.2,0.1c0.1,0.1,0.2,0.1,0.4,0.2c0.3,0.1,0.6,0.2,0.8,0.2c0.3,0,0.5-0.1,0.8-0.2c0.3-0.1,0.5-0.2,0.7-0.4
						c0.2-0.2,0.4-0.3,0.6-0.5c0.1-0.2,0.3-0.3,0.4-0.5l0.3,1.2l0,0c0,0.1,0.1,0.3,0.2,0.4c0.1,0.1,0.2,0.2,0.3,0.2
						c0.1,0,0.2,0.1,0.3,0.1c0.2,0,0.4-0.1,0.5-0.2c0.1-0.1,0.2-0.2,0.3-0.3L94.1,84.2z"/>
					<path class="st20" d="M78,58.5c0.1-0.1,0.1-0.2,0.2-0.3c0.2-0.4,0.5-0.8,0.7-1.3c0.3-0.7,0.4-1.3,0.4-1.8
						c-0.1-0.7-0.5-1.3-0.8-1.7c-0.4-0.4-0.9-0.8-1.5-1.1c-0.5-0.3-1.1-0.5-1.7-0.7c-0.3-0.1-0.6-0.2-0.9-0.3
						c-0.8-0.3-1.7-0.6-2.4-1l0,0l-0.1,0.1l0,0c0.2,0.2,0.5,0.3,0.8,0.5c0.3,0.1,0.5,0.3,0.8,0.4c0.3,0.1,0.5,0.2,0.8,0.3
						c0.3,0.1,0.6,0.3,0.9,0.4c0.5,0.2,1.1,0.5,1.5,0.8c0.5,0.3,1,0.7,1.3,1c0.3,0.4,0.5,0.9,0.6,1.3c0,0.4-0.1,0.9-0.4,1.4
						c-0.2,0.4-0.5,0.9-0.8,1.3l-0.1,0.2c-0.3,0.5-0.6,1-0.9,1.6c-0.1,0.1-0.1,0.3-0.2,0.4c0,0,0,0.1-0.1,0.1c0,0.1-0.1,0.1-0.1,0.2
						c0,0,0,0,0,0c0-0.2,0-0.3,0-0.4c0,0,0-0.1,0-0.1c0-0.1,0-0.3-0.1-0.4c-0.1-0.3-0.3-0.6-0.5-0.8c-0.2-0.2-0.5-0.4-0.8-0.5l0,0
						l0,0.2l0,0c0.5,0.3,0.8,0.7,0.9,1.3c0.1,0.6,0,1.2-0.2,1.5c-0.1,0.2-0.2,0.4-0.4,0.6c-0.1,0.2-0.3,0.3-0.5,0.5
						c-0.2,0.1-0.4,0.2-0.6,0.3c-0.2,0.1-0.4,0.1-0.6,0c-0.2,0-0.3-0.1-0.4-0.2c-0.1-0.1-0.2-0.3-0.2-0.5c0-0.2,0-0.5,0-0.7
						c0-0.1,0-0.2,0.1-0.4c0-0.1,0.1-0.2,0.1-0.4c0.1-0.2,0.2-0.5,0.4-0.7c0.1-0.2,0.3-0.4,0.5-0.7c0.2-0.3,0.4-0.5,0.7-0.8
						c0.2-0.2,0.3-0.4,0.5-0.6l0,0l-0.1-0.1l0,0c-0.5,0.4-1,0.8-1.4,1.2c-0.5,0.5-0.9,1-1.1,1.4c-0.3,0.6-0.4,1.2-0.4,1.8
						c0,0.4,0.2,0.7,0.3,0.9c0.2,0.3,0.5,0.5,0.8,0.5c0.1,0,0.2,0,0.3,0c0,0,0,0,0,0c0,0,0,0,0.1,0c0.1,0,0.1,0,0.2,0
						c0,0,0.1,0,0.1,0c0.1,0,0.2,0,0.3-0.1c0.3-0.1,0.6-0.2,0.8-0.4c0.1-0.1,0.1-0.1,0.2-0.2c0,0,0,0,0,0c0,0,0,0,0,0
						c0,0,0,0.1,0,0.1c0,0,0,0.1,0,0.1c0,0.1-0.1,0.2-0.1,0.3c-0.2,0.6-0.4,1.2-0.5,1.8c-0.1,0.3-0.1,0.6-0.2,0.9
						c-0.1,0.3-0.1,0.6-0.2,0.8c-0.1,0.2-0.2,0.4-0.4,0.6c-0.1,0.1-0.3,0.2-0.5,0.2c-0.2,0-0.4,0-0.7-0.1c-0.2-0.1-0.5-0.1-0.7-0.2
						l-0.1,0c-0.6-0.2-1.2-0.3-1.7-0.5c-0.3-0.1-0.5-0.2-0.8-0.3c-0.3-0.1-0.6-0.2-0.8-0.3l0,0L68.1,66l0,0c1.1,0.5,2.2,1,3.3,1.4
						c0.3,0.1,0.6,0.2,0.9,0.3c0.3,0.1,0.5,0.2,0.9,0.2c0,0,0,0,0.1,0c0.3,0,0.6-0.1,0.9-0.3c0.2-0.2,0.4-0.4,0.5-0.8
						c0.1-0.2,0.2-0.5,0.3-0.9c0.1-0.3,0.1-0.6,0.2-0.9c0.2-0.6,0.3-1.1,0.5-1.7c0.4-1.1,0.9-2.2,1.4-3.3C77.4,59.5,77.7,59,78,58.5
						z"/>
					<path class="st20" d="M71.6,26l0,0.2c0,0.2,0.1,0.4,0.1,0.7c0.1,0.2,0.1,0.4,0.2,0.6c0.1,0.2,0.2,0.4,0.2,0.6
						c0.1,0.2,0.1,0.4,0.1,0.6l0,0l0.2,0l0,0c0-0.4-0.1-0.9-0.2-1.3l0-0.1c-0.1-0.4-0.2-0.7-0.2-1.1c1-0.5,2-1,3.3-1.3
						c1.1-0.3,2.3-0.4,3.6-0.5c0.2,0,0.3,0,0.4,0.1c0.1,0.1,0.2,0.3,0.2,0.4c0,0.1,0,0.3,0,0.5c0,0,0,0,0,0l0,0c-0.1,0-0.2,0-0.2,0
						l-0.1,0l0.1,0.5c-0.1,0-0.1,0-0.2,0.1l-0.3,0.2l0.5,0.1l0,0c-0.1,0.2-0.2,0.5-0.2,0.8c0,0,0,0,0,0c0,0.2,0,0.4,0.1,0.7
						c0,0.1,0,0.2,0.1,0.3c0.1,0.2,0.1,0.5,0.2,0.7c0.1,0.4,0.2,0.7,0.3,1.1c0,0.1,0,0.3,0,0.4c0,0.1-0.1,0.2-0.2,0.3
						c-0.1,0.1-0.3,0.1-0.4,0.1c-0.2,0-0.3,0.1-0.5,0.1c-0.3,0.1-0.7,0.1-1,0.1c-0.3,0-0.5,0.1-0.8,0.1l0,0l0,0.2h0
						c0.1,0,0.2,0,0.4,0c0.2,0,0.3,0,0.5,0c0.3,0,0.7,0,1,0c0.2,0,0.3,0,0.5,0l0,0l0,0c0.2,0,0.3,0,0.5-0.1c0.1-0.1,0.2-0.1,0.3-0.2
						c0.1-0.1,0.2-0.2,0.2-0.4c0.1-0.2,0.1-0.4,0-0.6c0-0.3-0.1-0.6-0.2-0.9L80,28.5c-0.1-0.2-0.1-0.5-0.2-0.7
						c0-0.2-0.1-0.5-0.1-0.8c0-0.2,0.1-0.4,0.2-0.6l0.5-0.8l-0.3,0c0-0.2,0.1-0.4,0.1-0.7v0c0,0,0,0,0,0l0,0c0-0.1,0-0.1,0-0.2
						l0-0.1c0-0.1,0-0.1-0.1-0.2c-0.1-0.1-0.1-0.3-0.3-0.5c-0.1-0.1-0.2-0.1-0.2-0.2c0,0-0.1,0-0.1-0.1c0,0-0.1,0-0.1,0l0,0
						c-0.1,0-0.3-0.1-0.4-0.1l-0.1,0l0,0c-0.6,0.1-1.3,0.1-1.9,0.2c-0.5,0.1-1.1,0.2-1.8,0.4c-0.5,0.1-1.1,0.3-1.8,0.6
						c-0.5,0.2-1.1,0.5-1.6,0.9L71.6,26z"/>
					<path class="st20" d="M53.3,47.6c0,0.1,0,0.1,0,0.2c0,0.1,0,0.2,0,0.3c0,0,0,0.1,0,0.1c0,0.1,0,0.1,0.1,0.2c0,0,0,0,0,0
						c0,0,0,0,0,0c0,0,0,0,0,0c0,0,0,0,0,0.1c0.1,0.5,0.2,0.8,0.4,1.1c0.2,0.2,0.4,0.5,0.6,0.7c0.1,0.1,0.2,0.2,0.2,0.3
						c0.2,0.2,0.4,0.5,0.7,0.9c0.2,0.3,0.4,0.7,0.5,1c0.1,0.2,0.2,0.3,0.2,0.5c0,0.1,0.1,0.2,0.1,0.3c0,0.1,0.1,0.2,0.1,0.2
						c0.1,0.2,0.2,0.4,0.3,0.6c0.2,0.5,0.4,1,0.7,1.5l0,0l0.1,0l0,0c-0.2-0.8-0.4-1.5-0.7-2.3c-0.1-0.2-0.2-0.4-0.2-0.5
						c-0.1-0.2-0.2-0.4-0.3-0.5c-0.2-0.4-0.4-0.7-0.7-1c-0.2-0.2-0.4-0.5-0.6-0.7c-0.1-0.1-0.1-0.1-0.2-0.2
						c-0.3-0.3-0.5-0.6-0.6-0.9c0-0.1-0.1-0.2-0.1-0.3c0,0,0,0,0-0.1c0-0.1-0.1-0.2-0.1-0.3c0,0,0,0,0,0c0,0,0.1,0,0.1,0
						c0,0,0.1,0,0.1,0c0,0,0.1,0,0.1,0c0,0,0.1,0,0.1,0c0,0,0.1,0,0.1,0c0.2,0,0.4-0.1,0.5-0.2c0.1-0.1,0.3-0.3,0.3-0.4
						c0.1-0.1,0.1-0.2,0.2-0.3l0-0.1c0.1-0.1,0.1-0.2,0.2-0.4l0,0l0-0.1l0,0c-0.2-0.1-0.5,0.1-0.6,0.2c-0.2,0.1-0.3,0.3-0.4,0.4
						c0,0.1-0.1,0.1-0.1,0.2c0,0.1-0.1,0.1-0.1,0.2l0,0.1c-0.1,0.1-0.1,0.2-0.2,0.2c-0.1,0.1-0.2,0.1-0.3,0
						c-0.1-0.1-0.1-0.2-0.1-0.3c0,0,0,0,0-0.1c0-0.1-0.1-0.2-0.1-0.4l0,0c0-0.1-0.1-0.2-0.1-0.3l0-0.1c0,0,0-0.1,0-0.1l0,0l-0.2,0
						l-0.1,0l0,0.1v0c0,0,0,0.1,0,0.1c0,0,0,0,0,0.1C53.3,47.5,53.3,47.5,53.3,47.6C53.3,47.6,53.3,47.6,53.3,47.6z"/>
					<path class="st20" d="M56.9,57.2L56.9,57.2c-0.2-0.1-0.3-0.2-0.4-0.3c0,0-0.1-0.1-0.1-0.1c-0.2-0.1-0.3-0.2-0.4-0.3
						c-0.2-0.1-0.3-0.3-0.4-0.6c-0.1-0.2-0.2-0.4-0.4-0.6l0,0c-0.1-0.2-0.2-0.4-0.4-0.6c-0.3-0.3-0.6-0.7-1.1-1l0,0l-0.1,0.1l0,0
						c0.1,0.4,0.3,0.8,0.7,1.3c0.1,0.2,0.3,0.4,0.4,0.5l0,0c0.2,0.2,0.3,0.4,0.5,0.5c0.2,0.2,0.4,0.4,0.5,0.5
						c0.1,0.1,0.1,0.2,0.2,0.3c0.1,0.1,0.2,0.3,0.3,0.4c0.1,0.1,0.2,0.2,0.3,0.3c0.1,0.1,0.2,0.1,0.4,0.2c0.1,0,0.2,0.1,0.3,0.1
						c0.1,0,0.1,0,0.2,0c0.1,0,0.2-0.1,0.2-0.2c0.1-0.1,0.1-0.2,0.1-0.3l0,0l-0.1,0l0,0c0,0.1-0.1,0.1-0.2,0.1c-0.1,0-0.1,0-0.2-0.1
						C57.1,57.3,57,57.3,56.9,57.2z"/>
					<path class="st20" d="M39,34.7L39,34.7c0.2,0.2,0.4,0.3,0.6,0.5c0.2,0.2,0.5,0.4,0.7,0.5c0.4,0.3,0.8,0.7,1.2,1.1
						c0.2,0.2,0.3,0.4,0.5,0.6c0.2,0.2,0.3,0.5,0.4,0.7c0.1,0.2,0.1,0.3,0.2,0.4c0.1,0.1,0.2,0.2,0.3,0.3c0.2,0.1,0.3,0.1,0.5,0.2
						c0.1,0,0.2,0.1,0.3,0.1c0.2,0.1,0.3,0.2,0.5,0.4c0,0,0.1,0.1,0.1,0.1c0.1,0.1,0.2,0.2,0.3,0.3c0.1,0.1,0.2,0.1,0.4,0.2l0.1,0
						c0.1,0.1,0.2,0.1,0.3,0.2c0,0,0.1,0.1,0.1,0.1c0,0,0.1,0.1,0.1,0.1c0.1,0.1,0.1,0.2,0.1,0.3c0,0.1,0,0.2,0,0.2
						c0,0.1-0.1,0.1-0.2,0.1c-0.1,0-0.1,0-0.2,0.1c-0.1,0-0.1,0-0.2,0.1c-0.1,0-0.3,0.1-0.4,0.2c-0.1,0-0.1,0.1-0.2,0.1
						c0,0-0.1,0.1-0.1,0.1c-0.1,0.1-0.2,0.1-0.3,0.2c-0.1,0-0.2,0-0.3,0c-0.1,0-0.1-0.1-0.1-0.2c0-0.1,0-0.2,0.1-0.4l0,0l-0.1-0.1
						l0,0c-0.1,0.1-0.2,0.3-0.2,0.4c0,0.2,0,0.4,0.2,0.5c0,0,0.1,0,0.1,0.1c0,0,0,0,0,0c0,0,0.1,0,0.1,0c0,0,0,0,0,0
						c0,0,0.1,0,0.1,0c0,0,0,0,0,0c0,0,0.1,0,0.1,0c0.1,0,0.3-0.1,0.4-0.2c0.1,0,0.1-0.1,0.2-0.1c0,0,0.1-0.1,0.1-0.1c0,0,0,0,0,0
						c0,0,0.1,0,0.1-0.1c0,0,0,0,0,0c0,0,0,0,0,0.1c0,0,0,0,0,0.1c0,0,0,0.1,0,0.1c0,0,0,0,0,0c0,0,0,0.1,0,0.1c0,0,0,0,0,0
						c0,0,0,0.1,0,0.1c0.1,0.1,0.2,0.2,0.3,0.3l0,0c0,0,0,0,0,0l0,0c0.1,0.1,0.2,0.1,0.1,0.2c0,0,0,0,0,0.1c0,0,0,0,0,0.1
						c0,0-0.1,0.1-0.1,0.1l0,0c0,0-0.1,0-0.1,0c-0.1,0-0.2,0.1-0.3,0.1c-0.2,0.1-0.3,0.2-0.4,0.3c-0.2,0.3-0.3,0.5-0.3,0.8l0,0
						l0.1,0l0.1-0.1c0.1-0.1,0.2-0.2,0.2-0.2l0,0l0.1,0.1l0.4-0.1c0.1,0,0.2-0.1,0.3-0.1c0.1,0,0.1,0,0.2-0.1c0,0,0.1,0,0.1-0.1
						c0.1,0,0.1,0,0.2,0c0,0.2-0.1,0.3-0.1,0.4c0,0,0,0.1,0,0.1c0,0.1,0,0.2,0,0.3c0,0.1-0.1,0.2-0.2,0.3l0,0
						c-0.1,0-0.1,0.1-0.2,0.2c-0.1,0.1-0.1,0.2-0.1,0.3l0,0l0.1,0l0,0c0-0.1,0.1-0.1,0.1-0.1l0.2-0.1c0.1,0,0.2-0.1,0.3-0.2
						c0,0,0,0,0-0.1c0,0,0,0,0,0.1c0,0,0,0,0,0c0,0,0,0,0,0.1c0,0,0.1,0.1,0.1,0.1c0,0,0,0,0.1,0c0,0,0.1,0,0.1,0c0,0,0,0,0,0.1
						c0,0.1,0,0.1,0,0.1l0,0c0,0,0,0.1,0,0.1c0.1,0.1,0.1,0.1,0.2,0.2l0,0l0.1,0l0,0c0.1-0.1,0.1-0.2,0.1-0.4c0-0.1-0.1-0.1-0.1-0.1
						c0,0-0.1-0.1-0.2-0.1c0,0-0.1,0-0.1,0c0,0,0,0,0-0.1c0,0,0-0.1,0-0.1l0,0c0-0.1-0.1-0.1-0.2-0.1c0,0-0.1,0-0.1,0c0,0,0,0,0,0
						c0,0,0,0-0.1,0c0-0.1,0-0.1,0-0.2c0-0.2,0-0.4-0.1-0.6l0,0c0,0,0-0.1,0-0.1c0-0.1-0.1-0.2-0.1-0.4l0-0.1l-0.1,0
						c-0.1,0-0.2,0-0.3,0l-0.1,0c-0.2,0-0.3,0-0.4,0c-0.1,0-0.1,0-0.1,0.1c0,0,0,0,0,0c0.1-0.1,0.2-0.2,0.3-0.3
						c0.1-0.1,0.2-0.3,0.2-0.4c0-0.2,0-0.4-0.1-0.5c-0.1-0.1-0.2-0.2-0.2-0.3l-0.1,0c-0.1-0.1-0.2-0.2-0.2-0.3l0,0c0,0,0,0,0,0
						c0,0,0.1,0,0.1,0c0.1,0,0.2,0,0.3-0.1c0.2,0,0.3-0.2,0.4-0.4c0.1-0.2,0.1-0.4,0-0.6c0-0.2-0.1-0.3-0.2-0.4
						c0-0.1-0.1-0.1-0.2-0.2c-0.1-0.1-0.1-0.1-0.2-0.1c-0.1-0.1-0.2-0.1-0.3-0.2l0,0c-0.1-0.1-0.2-0.1-0.3-0.2
						c-0.1-0.1-0.2-0.1-0.3-0.2c0,0,0,0-0.1-0.1c-0.1-0.1-0.1-0.1-0.2-0.2c-0.1-0.1-0.3-0.2-0.4-0.2c-0.1,0-0.2-0.1-0.3-0.1
						c-0.2,0-0.3-0.1-0.4-0.1c-0.1,0-0.1-0.1-0.1-0.1c-0.1-0.1-0.2-0.3-0.3-0.5c-0.1-0.3-0.2-0.5-0.3-0.8c-0.1-0.3-0.3-0.5-0.5-0.7
						c-0.3-0.4-0.7-0.8-1.3-1.1c-0.4-0.3-0.9-0.5-1.5-0.8l0,0L39,34.7z"/>
					<path class="st20" d="M39.9,41.1l0.8-0.3c0.1,0,0.3-0.1,0.4-0.2c0.1-0.1,0.3-0.1,0.4-0.2c0.2-0.1,0.5-0.3,0.7-0.5l0,0l0-0.1
						l0,0c-0.1,0-0.2,0-0.3,0.1c0,0,0,0,0,0c0,0,0,0,0-0.1c0,0,0-0.1-0.1-0.1c0,0-0.1-0.1-0.1-0.1c0,0,0,0,0,0c0,0,0,0,0,0
						c0,0,0,0,0-0.1c0,0,0,0,0-0.1c0,0,0,0,0,0c0,0,0,0,0,0c0,0,0,0,0,0c0,0,0,0,0,0c0.1-0.2,0.1-0.4,0.1-0.6l0,0l-0.1,0l0,0
						c-0.1,0.2-0.2,0.3-0.3,0.5c-0.1,0.1-0.2,0.3-0.2,0.5c-0.1,0.2-0.1,0.4-0.2,0.5c-0.1,0.1-0.2,0.2-0.3,0.3c0,0-0.1,0-0.1,0.1
						L39.9,41.1L39.9,41.1z M41.4,40L41.4,40C41.4,40,41.4,40,41.4,40L41.4,40c0,0.1,0.1,0.1,0.1,0.1c0,0,0,0,0,0
						c-0.1,0-0.1,0-0.2,0.1c0,0-0.1,0-0.1,0.1C41.3,40.1,41.3,40,41.4,40z"/>
					<path class="st20" d="M41.3,37.7c-0.1,0-0.1,0.1-0.2,0.2c0,0,0,0-0.1,0.1C41,38,40.9,38,40.9,38.1c0,0-0.1,0.1-0.1,0.1
						c-0.1,0.1-0.3,0.2-0.4,0.3c-0.2,0.2-0.3,0.4-0.3,0.5c-0.1,0.2-0.1,0.4-0.1,0.6l0,0l0.1,0l0,0c0.1-0.1,0.2-0.2,0.2-0.4
						c0,0,0.1-0.1,0.1-0.1c0.1-0.1,0.1-0.2,0.2-0.3c0,0,0.1-0.1,0.1-0.1c0-0.1,0.1-0.1,0.1-0.2c0.1-0.1,0.1-0.2,0.2-0.3
						c0,0,0.1-0.1,0.1-0.1c0,0,0.1,0,0.1-0.1c0,0.1,0.1,0.1,0.1,0.2l0.4,0.5l-0.1-0.6c0-0.1,0-0.2-0.1-0.3l0-0.4L41.3,37.7z"/>
					<path class="st20" d="M41.5,41.4L41.5,41.4c0,0,0.1,0,0.1,0c0,0,0,0,0.1,0c0.1,0,0.1,0,0.2-0.1c0,0,0,0,0,0c0,0,0.1,0,0.2,0
						c0,0,0,0,0.1,0c0,0,0.1,0,0.2,0c0.1,0,0.3-0.1,0.4-0.3c0.1-0.1,0.1-0.4,0-0.5l0,0l-0.1,0l0,0c-0.1,0.1-0.1,0.2-0.2,0.2l0,0
						c0,0-0.1,0.1-0.1,0.1c0,0-0.1,0.1-0.1,0.1l0,0c0,0-0.1,0.1-0.1,0.1c0,0-0.1,0-0.1,0c0,0,0,0-0.1,0c0,0-0.1,0-0.1,0
						c-0.1,0-0.1,0-0.2,0l0,0L41.5,41.4L41.5,41.4C41.5,41.4,41.5,41.4,41.5,41.4z"/>
					<path class="st20" d="M34.2,43.6c-0.2,0-0.3,0.1-0.5,0.2c0,0-0.1,0.1-0.1,0.1c-0.1,0.2-0.2,0.4-0.2,0.6c0,0.4,0.1,0.8,0.2,1.1
						c0.1,0.4,0.3,0.7,0.5,1c0.2,0.3,0.5,0.6,0.8,0.8c0.3,0.2,0.7,0.3,1.1,0.3c0.1,0,0.2,0,0.2,0c0.1,0,0.2,0,0.3,0
						c0.2,0,0.4-0.1,0.6-0.2c0.2-0.1,0.4-0.2,0.5-0.4c0.1-0.2,0.1-0.4,0.1-0.6l0,0l-0.1,0l0,0c0,0.2-0.1,0.3-0.2,0.4
						c-0.1,0.1-0.2,0.2-0.4,0.2c-0.1,0-0.3,0.1-0.5,0.1c-0.2,0-0.3,0-0.5,0c-0.3,0-0.7-0.1-0.9-0.3c-0.3-0.2-0.6-0.3-0.8-0.6
						c-0.2-0.2-0.4-0.5-0.5-0.9c0-0.1,0-0.1,0-0.2c0-0.2,0-0.5,0-0.8c0-0.2,0.1-0.3,0.1-0.4c0.1-0.1,0.2-0.2,0.3-0.2
						c0.2-0.1,0.5,0,0.8,0.1l0.2,0l0-0.1l0,0c-0.2-0.1-0.3-0.2-0.5-0.2c-0.2-0.1-0.3-0.1-0.5-0.1C34.3,43.6,34.3,43.6,34.2,43.6z"/>
					<path class="st20" d="M35.9,45.4c0,0.1,0,0.3,0.1,0.4c0.1,0.1,0.2,0.2,0.3,0.2c0.1,0,0.2,0,0.3,0c0.1,0,0.2,0,0.4-0.1l0,0
						l0-0.1l0,0c-0.1-0.1-0.2-0.1-0.3-0.2c0,0-0.1,0-0.1-0.1c0,0,0,0-0.1,0c0,0-0.1,0-0.1-0.1c0,0-0.1-0.1-0.1-0.1
						c0-0.1,0-0.1,0-0.2c0,0,0-0.1,0-0.1c0-0.1,0-0.1,0-0.2c0-0.1,0-0.2-0.1-0.3c-0.1-0.1-0.2-0.2-0.3-0.2l0,0l-0.1,0.1l0,0
						c0,0.1,0,0.2,0,0.2l0,0.1c0,0.1,0,0.1,0.1,0.2l0,0c0,0,0,0,0,0.1c0,0,0.1,0.1,0.1,0.2C36,45.2,36,45.2,35.9,45.4
						C36,45.3,36,45.3,35.9,45.4z"/>
					<path class="st20" d="M35.1,45.8C35.1,45.8,35.1,45.8,35.1,45.8L35.1,45.8c0,0.1,0,0.2,0,0.2c0,0.1,0,0.2,0.1,0.2
						c0.1,0.2,0.3,0.3,0.4,0.3l0,0l0.1-0.1l0,0c0-0.2-0.1-0.3-0.1-0.4c0,0,0-0.1-0.1-0.1l0,0c0-0.1-0.1-0.1-0.1-0.2c0,0,0-0.1,0-0.1
						c0,0,0-0.1,0-0.1c0,0,0-0.1,0.1-0.1c0,0,0,0,0-0.1c0,0,0-0.1,0-0.1c0,0,0-0.1,0-0.1c0,0,0-0.1,0-0.1c0,0,0-0.1,0-0.1l0,0
						l-0.1,0l0,0c-0.1,0-0.2,0.1-0.2,0.2c0,0.1-0.1,0.1-0.1,0.2l0,0c0,0,0,0.1,0,0.1c0,0,0,0.1,0,0.1C35.2,45.6,35.1,45.7,35.1,45.8
						L35.1,45.8z"/>
					<path class="st20" d="M27.5,41.6L27.5,41.6L27.5,41.6l0.1,0.3c0,0.1,0.1,0.2,0.1,0.3c0,0,0,0.1,0,0.1c0,0.1,0,0.1,0.1,0.2
						l0.1,0.3c0,0.1,0.1,0.1,0.1,0.2c0,0,0,0.1,0.1,0.1c0.1,0.1,0.2,0.3,0.3,0.4c0,0,0.1,0.1,0.1,0.1l0,0l0.1-0.1l0,0
						c-0.7-1.3-0.8-2.8-0.3-4.2c0.1-0.1,0.1-0.3,0.2-0.4l0-0.1c0,0,0.1-0.1,0.1-0.1c0,0,0-0.1,0.1-0.1l0.1-0.1l0.1-0.1
						c0,0,0-0.1,0.1-0.1c0,0,0.1-0.1,0.1-0.1l0.2-0.2c0,0,0.1-0.1,0.1-0.1c0.1-0.1,0.2-0.2,0.3-0.4c0-0.1,0.1-0.1,0.1-0.2
						c0-0.1,0-0.1,0-0.2c0-0.1,0-0.1,0-0.2c0,0,0.1-0.1,0.2-0.2c0,0,0.1-0.1,0.1-0.1c0.1-0.1,0.2-0.2,0.3-0.3
						c0.2-0.2,0.4-0.3,0.5-0.5c0.7-0.6,1.3-1,1.9-1.3c0.7-0.3,1.5-0.4,2.2-0.5l1.7-0.2l0,0c0.2,0,0.4,0,0.5,0c0.4,0,0.8,0,1,0.1
						c0.1,0,0.1,0.1,0.2,0.1c0.2,0.1,0.4,0.3,0.6,0.6l0,0l0.1,0l0,0c-0.1-0.4-0.3-0.7-0.8-1c-0.3-0.2-0.7-0.3-1.2-0.3
						c-0.3,0-0.7,0-1,0l-0.2,0c-0.4,0-0.8,0.1-1.2,0.1c-0.7,0.1-1.5,0.4-2.2,0.8c-0.8,0.4-1.5,0.8-2,1.2c-0.4,0.3-0.7,0.5-0.9,0.7
						L29.6,36c-0.1,0-0.1,0.1-0.2,0.1c-0.1,0.1-0.2,0.2-0.3,0.3c-0.1,0.1-0.1,0.3-0.1,0.4l0,0c0,0.1,0,0.1,0,0.2
						c0,0.1-0.1,0.1-0.2,0.2c0,0-0.1,0.1-0.1,0.1l-0.2,0.2c0,0-0.1,0.1-0.1,0.2c0,0,0,0.1-0.1,0.1c-0.3,0.3-0.5,0.7-0.6,1.1
						c-0.1,0.1-0.1,0.3-0.1,0.4c0,0,0,0.1,0,0.1c0,0.1,0,0.1,0,0.1c0,0.1,0,0.2-0.1,0.3c0,0,0,0.1,0,0.1c0,0.4,0,0.8,0,1.2
						L27.5,41.6z"/>
					<path class="st20" d="M29.2,44.6c0-0.2,0-0.5-0.1-0.7l0,0c0-0.2-0.1-0.4-0.2-0.7l0,0l-0.1,0l0,0c-0.1,0.3-0.1,0.5-0.1,0.7
						c0,0.2,0,0.5,0,0.7c0,0.1,0.1,0.2,0.1,0.3c0,0.1,0.1,0.3,0.1,0.4c0,0.1,0,0.2,0,0.3l0,0c0,0.1,0,0.1,0,0.2
						c0,0.1,0.1,0.2,0.2,0.2c0,0,0.1,0,0.1,0.1c0,0,0,0,0.1,0c0,0,0,0,0,0.1c0,0.1,0,0.1,0.1,0.2l0,0.2c0,0.1,0,0.1,0,0.2
						c0,0.1,0.1,0.2,0.2,0.4c0.3,0.4,0.8,0.7,1.3,0.7c0,0,0.1,0,0.1,0l0,0l0-0.1l0,0c-0.4-0.3-0.7-0.6-0.8-0.9
						c0-0.1-0.1-0.2-0.1-0.3c0-0.1-0.1-0.1-0.1-0.2l0-0.1c0-0.1-0.1-0.3-0.2-0.4c-0.1-0.1-0.1-0.1-0.2-0.2c-0.1,0-0.1,0-0.2,0
						c0,0,0,0,0,0c0,0,0,0,0,0c0,0,0-0.1,0-0.1c0-0.1,0-0.2,0-0.3c0-0.1,0-0.3,0-0.4C29.2,44.8,29.2,44.7,29.2,44.6z"/>
					<path class="st20" d="M37.6,34.3l0-0.1l0,0c-0.3,0-0.5,0.1-0.7,0.1c-0.2,0.1-0.4,0.3-0.6,0.4c-0.1,0-0.1,0.1-0.2,0.1
						c-0.1,0.1-0.2,0.2-0.3,0.3c0,0,0,0,0,0c0,0-0.1,0-0.1,0c0,0-0.1,0-0.1,0.1c0,0,0,0,0,0c0,0,0,0,0,0c0,0,0,0-0.1-0.1
						c-0.1,0-0.2-0.1-0.2-0.1c-0.1,0-0.1,0-0.2,0.1c-0.1,0.1-0.2,0.2-0.3,0.3c-0.1,0.2-0.1,0.5,0,0.8c0,0.1,0.1,0.2,0.2,0.3
						c0.1,0.1,0.2,0.2,0.3,0.2c0.2,0.1,0.4,0.2,0.7,0.2l0,0l0-0.1l0,0c-0.1-0.1-0.2-0.2-0.3-0.2c-0.1-0.1-0.2-0.1-0.2-0.2
						c-0.1-0.1-0.2-0.1-0.2-0.2c-0.1-0.1-0.1-0.2-0.2-0.2c-0.1-0.1-0.1-0.3-0.1-0.4c0,0,0-0.1,0-0.1c0-0.1,0.1-0.1,0.2-0.2
						c0.1,0,0.1,0,0.2,0c0,0,0,0,0,0c0,0,0,0.1,0.1,0.1c0,0,0.1,0.1,0.1,0.1c0,0,0.1,0,0.1,0c0.1,0,0.1,0,0.2,0c0,0,0,0,0,0
						c0,0,0.1,0,0.1,0c0,0,0,0,0.1,0c0.2-0.1,0.4-0.2,0.6-0.4c0.1-0.1,0.1-0.1,0.2-0.2C37.1,34.7,37.3,34.4,37.6,34.3L37.6,34.3z"/>
					<path class="st20" d="M61.5,25.4c-0.1,0.1-0.1,0.2-0.2,0.3c-0.1,0.2-0.1,0.3-0.1,0.5l0,0.1c-0.1,0.3-0.1,0.6-0.3,1l0,0l0.1,0.1
						l0,0c0.3-0.2,0.6-0.6,0.7-1c0-0.1,0-0.2,0.1-0.3c0-0.1,0-0.1,0-0.2c0-0.2,0.1-0.3,0.2-0.4c0.1-0.1,0.3-0.1,0.4-0.1
						c0.2,0,0.3,0.1,0.4,0.2l0.1,0.1c0,0,0.1,0.1,0.1,0.1c0.1,0.1,0.1,0.1,0.2,0.2c0.1,0.1,0.2,0.3,0.3,0.4l0,0c0,0-0.1,0.1-0.1,0.1
						c0,0,0,0.1-0.1,0.1c-0.1,0.1-0.1,0.2-0.2,0.3l0,0l0.1,0.1l0,0c0.2-0.1,0.3-0.3,0.5-0.4c0.2-0.1,0.3-0.2,0.5-0.2
						c0.1,0,0.1,0,0.2,0.1c0.1,0,0.1,0.1,0.1,0.1c0.1,0.1,0.1,0.3,0.2,0.5c0,0,0,0.1,0,0.1c0,0.2,0.1,0.3,0.2,0.5
						c0.1,0.2,0.2,0.4,0.3,0.6c0.2,0.3,0.3,0.5,0.5,0.7c0.1,0.1,0.2,0.2,0.3,0.3c0.3,0.3,0.4,0.7,0.5,1.1c0,0.4-0.1,0.9-0.2,1.2
						l0,0.1c-0.1,0.2-0.1,0.4-0.2,0.6c0,0.1,0,0.3,0,0.4c0,0.1,0.1,0.2,0.1,0.3c0.2,0.4,0.3,0.8,0.6,1.2l0,0l0.1,0l0,0
						c0-0.1,0-0.2,0-0.3c0-0.3-0.1-0.6-0.2-1c0-0.2-0.1-0.3,0-0.5c0-0.1,0-0.2,0.1-0.3c0-0.1,0-0.2,0.1-0.3c0.1-0.5,0-0.9,0-1.4
						c-0.1-0.4-0.2-0.9-0.4-1.3c-0.1-0.3-0.3-0.6-0.4-0.8c-0.1-0.1-0.1-0.2-0.2-0.3c-0.1-0.2-0.2-0.4-0.2-0.5c0-0.1-0.1-0.2-0.1-0.3
						c0-0.1-0.1-0.2-0.1-0.3c-0.1-0.2-0.2-0.5-0.3-0.7c-0.1-0.1-0.2-0.2-0.4-0.3c-0.1-0.1-0.3-0.1-0.4-0.1c-0.1,0-0.1,0-0.2,0
						c0,0,0,0-0.1,0c0,0-0.1,0-0.1,0.1c0,0,0,0-0.1,0c0,0-0.1,0-0.1,0.1c0,0,0,0-0.1,0.1c0,0,0,0-0.1,0.1c0,0,0,0,0,0
						c0-0.1,0-0.2,0-0.2c0,0,0,0,0,0c0-0.1-0.1-0.2-0.1-0.2c0-0.1-0.1-0.1-0.1-0.2c0,0,0,0-0.1-0.1c0,0,0,0-0.1-0.1
						c0.1,0,0.3-0.1,0.4-0.2c0.1,0,0.2-0.1,0.2-0.1c0.2-0.1,0.3-0.1,0.5-0.2c0.1,0,0.2-0.1,0.3-0.1c0.2-0.1,0.3-0.1,0.5-0.2
						c0.1,0,0.2-0.1,0.3-0.1c0.1,0,0.2-0.1,0.3-0.1c0.2-0.1,0.3-0.1,0.5-0.2v0c0.2-0.1,0.3-0.2,0.5-0.2c0,0,0,0,0,0
						c0.1,0,0.1-0.1,0.2-0.1c0,0,0,0,0,0c0,0,0.1,0,0.1-0.1c0.4,0.7,0.7,1.4,1.1,2.1c0.2,0.4,0.4,0.9,0.7,1.3
						c0.3,0.6,0.6,1.1,0.8,1.8c0.2,0.5,0.4,1.1,0.6,1.8c0.2,0.9,0.4,1.9,0.6,2.9c0.1,0.3,0.1,0.6,0.2,1l0.8,3.9l0.1,0
						c0,0.1,0,0.2,0,0.2c0,0.1,0,0.2,0,0.3c0,0.1,0,0.3,0,0.4c0,0.1,0,0.2,0,0.3c0,0.1,0,0.3,0,0.4c0,0.1,0,0.2,0,0.3
						c0,0.1,0,0.3,0,0.4c0,0.1,0,0.2,0,0.3c0,0.1,0,0.3,0,0.4c0,0.1,0,0.2,0,0.3c0,0.2,0,0.3,0,0.5c0,0.1,0,0.2,0,0.3
						c0,0.2,0,0.4,0,0.5c0,0.1,0,0.2,0,0.2c0,0.3-0.1,0.5-0.1,0.8c-0.2,1.9-0.6,3.7-1,5.6l-0.1,0.3c-0.4,2-0.9,4-1.4,5.9
						c-0.3,1.2-0.6,2.4-0.9,3.6c-0.2,0.7-0.4,1.5-0.6,2.2c-0.3,1.2-0.5,2.1-0.7,2.9c-0.1,0.4-0.2,0.9-0.3,1.5
						c-0.1,0.4-0.1,1-0.2,1.5c-0.1,1.6-0.1,3.3-0.1,4.9c0,0.4,0,0.8,0,1.1c0,3.9-0.3,8-0.8,12l0,0l0.2,0l0,0
						c0.1-0.6,0.2-1.1,0.3-1.5c0.1-0.5,0.1-1,0.2-1.5c0.1-1,0.3-2,0.4-3c0.2-2.2,0.3-4.2,0.4-6c0-0.6,0-1.2,0-1.7
						c0-1.4,0.1-2.8,0.2-4.2c0-0.3,0.1-0.7,0.1-1.1c0-0.1,0-0.3,0.1-0.4c0.1-0.5,0.2-1,0.3-1.4c0.2-0.8,0.4-1.7,0.7-2.9
						c0.1-0.3,0.1-0.5,0.2-0.8c0-0.1,0.1-0.3,0.1-0.4c0-0.1,0-0.2,0.1-0.3c0,0,0.1,0.1,0.1,0.1c0,0,0.1,0.1,0.1,0.1
						c0,0,0.1,0.1,0.1,0.1c0,0,0.1,0,0.1,0.1c0.1,0,0.1,0,0.2,0.1c0,0,0.1,0,0.1,0c0.1,0,0.2,0,0.3,0c0,0,0,0,0,0
						c0.3,0,0.7-0.1,1.1-0.3c0.4-0.2,0.7-0.4,0.9-0.7c0.2-0.3,0.4-0.6,0.5-1c0.1-0.4,0.1-0.7,0.1-1.1c-0.1-0.4-0.2-0.7-0.4-1.1
						c-0.2-0.3-0.4-0.5-0.8-0.8c0.9-0.9,1.9-1.8,3.2-2.7l0,0l-0.1-0.1l0,0c-1.4,0.6-2.6,1.4-3.6,2.4c-0.1,0.1-0.2,0.2-0.3,0.3
						c0,0-0.1,0.1-0.1,0.1c-0.1,0.1-0.1,0.1-0.2,0.2c0,0-0.1,0.1-0.1,0.1c-0.1,0.1-0.1,0.1-0.2,0.2c0,0-0.1,0.1-0.1,0.1
						c0,0-0.1,0.1-0.1,0.1c0-0.2,0.1-0.4,0.1-0.6c0.1-0.4,0.2-0.8,0.3-1.2c0.3-1.5,0.7-3.1,1-4.7c0.4-2.1,0.8-4,0.9-6
						c0.1-1,0.1-2.1,0.1-3c0-0.6-0.1-1.1-0.1-1.5c-0.1-0.5-0.2-1-0.2-1.5l0,0l-0.1,0l-0.1-0.7l-0.4-2.9c0-0.2-0.1-0.5-0.1-0.7
						c-0.1-1-0.3-2.1-0.5-3.2c-0.2-0.8-0.3-1.4-0.6-1.9c-0.2-0.6-0.5-1.3-0.8-1.8c-0.2-0.4-0.4-0.8-0.6-1.1
						c-0.1-0.2-0.2-0.4-0.3-0.6l-0.5-1c-0.1-0.2-0.2-0.4-0.3-0.6l0,0c0.2-0.1,0.5-0.3,0.8-0.4l0.1-0.1c0.1-0.1,0.2-0.1,0.3-0.2
						c0.1,0,0.1-0.1,0.2-0.2c0.1-0.1,0.1-0.2,0.1-0.3c0,0,0-0.1,0-0.1c0,0,0,0,0,0c0,0,0-0.1-0.1-0.1c0,0,0.1,0,0.1,0c0,0,0,0,0.1,0
						c0.1,0,0.1,0,0.2-0.1l0.1,0c0.1,0,0.2-0.1,0.3-0.1c0,0,0.1,0,0.1-0.1c0.1-0.1,0.1-0.1,0.2-0.1c0.1,0,0.1,0,0.1,0
						c0,0,0,0.1,0,0.1c0,0,0,0.1-0.1,0.1c0,0.1-0.1,0.1-0.2,0.2c-0.1,0.1-0.2,0.1-0.3,0.2c-0.1,0.1-0.2,0.1-0.3,0.2l0,0l0,0.1l0,0
						c0.1,0,0.2,0,0.3,0c0,0,0,0,0,0c0,0,0,0,0,0c0.1,0,0.1,0,0.2,0c0,0,0,0,0.1,0c0.1,0,0.2-0.1,0.2-0.1c0.1-0.1,0.2-0.2,0.3-0.4
						c0,0,0-0.1,0-0.1l0,0l0,0l0,0l0,0h0c0,0,0,0,0,0c0.1,0,0.2,0,0.3,0c0,0,0.1,0,0.1,0c0.1,0,0.1,0,0.2,0c0,0,0.1,0,0.1,0
						c0,0,0.1,0,0.1,0c0,0,0.1,0,0.1,0c0,0,0.1,0,0.1,0l0.1,0.1l0.1,0c0,0,0.1,0,0.1-0.1c0.1-0.1,0.3-0.1,0.4-0.2
						c0.1-0.1,0.3-0.2,0.5-0.3l0.2-0.1L73,21c-0.4-0.5-0.8-0.8-1.1-1.1l0,0l0,0l0,0l0,0l0,0c0,0-0.1,0.1-0.2,0.1
						c0,0-0.1,0.1-0.1,0.1c-0.1,0.1-0.2,0.2-0.2,0.3c0,0,0,0,0,0c0,0,0,0,0,0l0,0c0,0,0,0,0,0c0,0-0.1,0.1-0.1,0.1
						c-0.1,0.1-0.2,0.2-0.3,0.3c-0.1,0.1-0.3,0.2-0.5,0.3l-0.1,0.1l0,0.1c0,0,0,0,0,0c0,0-0.1,0-0.1,0c0,0-0.1,0-0.1,0
						c-0.1,0-0.1,0-0.2,0c-0.1,0-0.1,0-0.2,0c-0.1,0-0.3,0.1-0.3,0.2c-0.1,0.1-0.2,0.2-0.2,0.3l0,0c0,0,0,0-0.1,0c0,0,0,0,0,0
						c0,0-0.1,0-0.2,0c-0.1,0-0.2,0.1-0.2,0.1l-0.2,0.1c-0.2,0.1-0.5,0.3-0.8,0.4c0,0-0.1,0-0.1,0c0,0,0,0,0,0c0,0,0,0,0,0
						c0,0,0,0,0-0.1c-0.1-0.2-0.1-0.5-0.1-0.8c0-0.2,0-0.4,0-0.7c0-0.1,0-0.2,0-0.3c0-0.1,0-0.2,0-0.3c0-0.2,0-0.4,0-0.7l0-1
						c0-0.3,0-0.7-0.1-1c0-0.2-0.1-0.4-0.1-0.6c-0.1-0.2-0.1-0.3-0.2-0.5l0,0c-0.1-0.2-0.1-0.3-0.1-0.4c0-0.1,0-0.2,0-0.4
						c0-0.2,0-0.5,0.1-0.8c0-0.1,0.1-0.3,0.2-0.4c0-0.1,0.1-0.2,0.2-0.4l0,0c0.3-0.6,0.6-1.1,1-1.6c0.1-0.2,0.3-0.4,0.4-0.6
						c0.2-0.3,0.5-0.7,0.7-1l0.1-0.1c0.1-0.1,0.1-0.2,0.2-0.3c0.1-0.1,0.2-0.3,0.2-0.4c0.1-0.3,0.3-0.6,0.4-0.9l0,0l-0.2-0.1l0,0
						c-0.4,1-1.1,1.8-1.8,2.7c-0.1,0.2-0.3,0.3-0.4,0.5c-0.4,0.5-0.8,1-1.1,1.6c-0.3,0.5-0.6,1.2-0.6,1.9c0,0.3,0,0.7,0.2,1l0,0.1
						c0,0.1,0.1,0.2,0.1,0.3c0,0.1,0.1,0.3,0.1,0.5c0,0.3,0,0.6,0,1l0,1c0,0.2,0,0.5,0,0.7c0,0.4,0,0.8,0,1.3c0,0.4,0.1,0.7,0.1,1
						c0,0.1,0,0.1,0,0.2c0,0,0,0,0,0l-0.1,0c-0.2,0.1-0.4,0.2-0.7,0.3c-0.6,0.3-1.1,0.5-1.6,0.8l-0.1,0c-0.2,0.1-0.5,0.2-0.7,0.4
						c-0.3,0.2-0.5,0.4-0.7,0.6l0,0l0.1,0.1l0,0c0.2-0.1,0.4-0.2,0.6-0.3c0.1,0,0.1-0.1,0.2-0.1l0.2-0.1c0.2-0.1,0.4-0.2,0.6-0.2
						c0.5-0.2,1-0.5,1.6-0.8c0.2-0.1,0.4-0.2,0.6-0.3l0.1,0c0,0.1,0,0.1,0.1,0.2l-0.1,0.1c-0.3,0.1-0.5,0.2-0.8,0.4
						c-0.7,0.3-1.4,0.7-2.2,1.1c0,0,0,0-0.1,0c-0.2,0.1-0.5,0.2-0.7,0.4c0,0,0,0,0,0c0,0,0,0,0,0c-0.2-0.1-0.4-0.1-0.6-0.2
						c-0.2,0-0.4,0-0.6,0l0,0C61.7,25.2,61.6,25.3,61.5,25.4z M70.2,57.7c0.3-0.5,0.7-1,1.2-1.6l0.2,0.2c0,0,0,0,0,0c0,0,0,0,0,0.1
						l0.1,0.1c0,0,0,0.1,0.1,0.1c0,0,0.1,0.1,0.1,0.1L72,57c0.1,0.3,0.2,0.6,0.2,0.9c0,0.3,0,0.6-0.2,0.9c-0.1,0.3-0.3,0.5-0.5,0.7
						l-0.2,0.1c0,0-0.1,0-0.1,0.1c0,0-0.1,0-0.1,0.1c0,0-0.1,0.1-0.2,0.1l0,0c0,0-0.1,0-0.1,0c0,0-0.1,0-0.1,0.1c0,0-0.1,0-0.1,0
						c-0.1,0-0.2,0.1-0.3,0.1c-0.1,0-0.3,0-0.4,0c-0.1,0-0.1,0-0.1,0c0,0,0,0-0.1,0c0,0-0.1,0-0.1,0c-0.1,0-0.1-0.1-0.2-0.1
						c-0.1-0.1-0.1-0.4-0.1-0.6c0-0.3,0.1-0.5,0.2-0.8C69.9,58.3,70,58,70.2,57.7z M70.4,21.4C70.5,21.4,70.5,21.4,70.4,21.4
						L70.4,21.4C70.5,21.4,70.4,21.4,70.4,21.4L70.4,21.4z M67.6,22.9C67.6,22.8,67.7,22.8,67.6,22.9c0.4-0.2,0.6-0.3,0.9-0.4
						c0,0,0.1,0,0.1-0.1c0.1,0,0.2-0.1,0.3-0.1c0.1,0,0.1,0,0.1,0c0,0,0,0,0,0.1c0,0.1-0.2,0.2-0.4,0.3c-0.1,0-0.1,0.1-0.2,0.1
						l-0.8,0.4c0,0,0,0,0,0C67.6,23,67.6,23,67.6,22.9C67.6,22.9,67.6,22.9,67.6,22.9C67.6,22.9,67.6,22.9,67.6,22.9z"/>
					<path class="st20" d="M59.8,28.7C59.8,28.7,59.9,28.7,59.8,28.7C59.9,28.7,59.9,28.7,59.8,28.7c0.1,0,0.2,0,0.2-0.1l0,0l0-0.1
						l0,0c0-0.1-0.1-0.2-0.2-0.2c-0.1,0-0.1,0-0.1,0c0,0-0.1,0.1-0.1,0.1c0,0,0,0,0,0c0,0,0,0,0,0c0,0-0.1,0-0.1,0
						c-0.1,0-0.1,0-0.1,0.1l0,0c0,0,0,0.1,0,0.2l0,0l0,0c0,0,0.1,0,0.1,0c0,0,0,0,0.1,0c0,0,0,0,0,0l0,0c0,0,0.1,0,0.1-0.1
						c0,0,0,0,0,0c0,0,0,0,0,0C59.7,28.6,59.7,28.6,59.8,28.7C59.8,28.7,59.8,28.7,59.8,28.7z"/>
					<path class="st20" d="M27.7,73.7L27.7,73.7l0.2,0l0,0c0-0.4-0.1-0.9-0.1-1.3c-0.1-1.1-0.2-2.2-0.3-3.4
						c-0.1-0.7-0.1-1.5-0.2-2.3c0-0.6-0.1-1.5-0.1-2.3c0-0.8,0-1.6,0.1-2.3c0-0.2,0.1-0.5,0.1-0.7c0.1-0.5,0.1-1.1,0.1-1.7
						c0-0.3,0-0.5,0-0.7c0-0.1,0-0.3,0-0.4c0-0.4,0-0.8,0.1-1.1c0.1-0.3,0.2-0.6,0.4-1c0.1-0.3,0.3-0.6,0.3-0.8c0,0,0-0.1,0-0.1
						c0-0.1,0-0.1,0-0.2c0-0.1,0.1-0.1,0.1-0.2c0-0.1,0.1-0.1,0.1-0.2c0-0.1,0.1-0.1,0.1-0.2c0-0.1,0.1-0.1,0.1-0.2
						c0,0,0.1-0.1,0.1-0.1c0.1-0.1,0.1-0.1,0.2-0.2c0,0,0.1-0.1,0.1-0.1c0.1-0.1,0.2-0.2,0.2-0.2c0,0,0,0,0,0c0.5-0.4,1-0.7,1.6-1
						c0.1-0.1,0.3-0.1,0.4-0.2c0.5-0.2,1-0.3,1.5-0.5c0.2-0.1,0.5-0.1,0.7-0.2c0.3-0.1,0.7-0.1,1-0.2l0.4-0.1
						c0.8-0.2,1.5-0.3,2.1-0.3c0.6-0.1,1.1,0,1.7,0c0.1,0,0.3,0,0.4,0h0c0.2,0,0.4,0,0.6,0c0.5,0,1,0,1.5,0c0.2,0,0.4,0,0.6,0
						c0,0,0,0,0,0c0.2,0,0.4,0,0.5,0c0.1,0,0.3,0,0.4,0c0,0,0.1,0,0.1,0c0.2,0,0.3,0,0.5,0c0,0,0,0,0,0c0,0-0.1,0.1-0.1,0.1
						c-0.1,0.1-0.1,0.1-0.2,0.2c0,0-0.1,0.1-0.1,0.1c-0.1,0.1-0.1,0.1-0.2,0.2c0,0-0.1,0.1-0.1,0.1c-0.1,0.1-0.2,0.2-0.3,0.4
						c-0.2,0.2-0.3,0.3-0.5,0.5c0,0.1-0.1,0.1-0.1,0.2c-0.1,0.1-0.2,0.2-0.3,0.4l0,0c-0.3,0-0.6,0.1-0.8,0.2
						c-0.2,0.1-0.5,0.2-0.7,0.4c-0.1,0.1-0.2,0.2-0.3,0.3c-0.1,0.1-0.2,0.2-0.3,0.3c-0.2,0.2-0.4,0.3-0.7,0.5
						c-0.2,0.2-0.5,0.3-0.6,0.5c-0.2,0.2-0.4,0.4-0.5,0.6c-0.3,0.5-0.5,1.1-0.6,1.6l0,0l0.1,0l0,0c0.2-0.3,0.5-0.6,0.7-0.9
						c0.1-0.1,0.2-0.3,0.3-0.4c0.1-0.1,0.1-0.2,0.2-0.3c0.1-0.1,0.2-0.2,0.2-0.3c0.1-0.2,0.2-0.3,0.4-0.5l0.1-0.1
						c0.2-0.2,0.4-0.4,0.6-0.5c0.1-0.1,0.3-0.2,0.5-0.2c0.1,0,0.2-0.1,0.2-0.1c0.2-0.1,0.5-0.3,0.7-0.4c0,0,0,0,0,0
						c-0.1,0.1-0.2,0.2-0.3,0.4c-0.1,0.1-0.1,0.1-0.2,0.2c-0.2,0.2-0.4,0.5-0.5,0.7c-0.8,1.2-1.5,2.3-2,3.3l0,0l0.1,0.1l0,0
						c0.8-0.9,1.6-1.9,2.3-2.9l0.1-0.1c0.3-0.4,0.6-0.8,0.8-1.1l0.3-0.4c0.4-0.5,0.8-1.1,1.1-1.6c0.4-0.6,0.8-1.1,1.2-1.5
						c0.1-0.1,0.2-0.2,0.3-0.3c0.1-0.1,0.2-0.1,0.4-0.1c0.2,0,0.3,0,0.5,0c0.1,0,0.3,0,0.4,0c0.4,0,0.8-0.1,1-0.2
						c0.2-0.1,0.4-0.2,0.6-0.3c0.1,0,0.2-0.1,0.3-0.1c0.3-0.2,0.6-0.3,0.8-0.3c0.3-0.1,0.6,0,0.9,0.1l0,0l0.1-0.1l0,0
						c-0.2-0.2-0.6-0.4-1-0.4c-0.3,0-0.7,0.1-1,0.2c-0.2,0.1-0.3,0.1-0.5,0.2c-0.1,0-0.1,0-0.2,0.1l0-0.1l0,0
						c-0.1-0.1-0.1-0.2-0.1-0.4c0-0.1,0-0.1,0.1-0.2l0.1-0.2c0.1-0.3,0.2-0.6,0.2-0.9c0.1-0.3,0.1-0.6,0.1-0.9l0,0
						c0-0.2,0-0.3,0.1-0.5c0,0,0-0.1,0-0.1c0-0.1,0-0.2,0.1-0.3l0-0.2l-0.1,0c0-0.1,0-0.2,0-0.4l0-0.4l-0.2,0
						c-0.5,0.1-1.1,0.3-1.9,0.5c-0.7,0.2-1.3,0.4-1.8,0.6l-0.9,0.3c-0.3,0.1-0.6,0.2-0.9,0.3c-0.6,0.2-1.2,0.4-1.9,0.5l-1.4,0.4l0,0
						l0,0c-0.5-0.2-1.1-0.2-1.9-0.3c-0.4,0-0.8,0-1.1,0.1c-0.2,0-0.5,0.1-0.8,0.1c-0.5,0-1,0-1.5,0c-0.1,0-0.2,0-0.4,0
						c-0.7,0-1.3-0.1-1.8-0.2l-0.4-0.1l0.2,0.4c0.2,0.3,0.4,0.7,0.5,0.9l0,0c0.1,0.1,0.2,0.3,0.3,0.4c0,0,0,0,0,0c0,0,0,0,0,0
						c0,0,0,0,0,0c0,0,0,0.1,0,0.1c0,0,0,0.1,0,0.1c0,0,0,0.1,0,0.1c0,0,0,0.1-0.1,0.1l0,0c0,0,0,0-0.1,0.1c0,0,0,0.1,0,0.1l0,0
						c0,0,0,0.1,0,0.1c-0.1,0-0.1,0.1-0.2,0.1c0,0-0.1,0-0.1,0c-0.1,0-0.2,0.1-0.2,0.1c-0.4,0.2-0.7,0.5-1,0.8
						c-0.2,0.2-0.4,0.4-0.5,0.6c-0.1,0.1-0.1,0.2-0.2,0.3c-0.3,0.5-0.5,1-0.6,1.4l0,0l0.1,0.1l0,0c0.1-0.1,0.2-0.3,0.3-0.4
						c0.3-0.4,0.5-0.8,0.8-1.2c0.4-0.5,0.9-0.9,1.4-1.2c0.5-0.3,1-0.5,1.7-0.6c0.4-0.1,0.8-0.2,1.1-0.2c0.2,0,0.5-0.1,0.7-0.1
						c0.7-0.1,1.3-0.2,1.9-0.3c0.5,0,1-0.1,1.5-0.1c0.1,0,0.3,0,0.4,0l0.2,0c0.6,0,1.1,0,1.6,0c0.2,0,0.3,0,0.5,0.1
						c0.5,0.1,0.9,0.2,1.3,0.5l0,0l0.1-0.1l0,0c-0.4-0.4-1.1-0.8-1.8-0.9c-0.3-0.1-0.7-0.1-1-0.1c-0.3,0-0.7,0-1,0.1
						c-0.3,0-0.7,0.1-1,0.2c-0.3,0.1-0.6,0.1-0.9,0.2c-0.6,0.1-1.2,0.1-1.9,0.2c-0.6,0-1.3,0.1-1.9,0.2c-0.1,0-0.3,0.1-0.4,0.1
						c0,0-0.1,0-0.1,0c-0.1,0-0.2,0-0.3,0.1c0,0,0,0,0,0l0,0c0,0,0,0,0,0c0,0,0,0,0,0c0,0,0.1,0,0.1,0c0,0,0,0,0,0
						c0.1,0,0.1,0,0.1-0.1c0,0,0,0,0-0.1c0,0,0,0,0-0.1c0,0,0-0.1,0-0.1l0,0c0,0,0,0,0.1,0c0,0,0,0,0,0c0,0,0.1-0.1,0.1-0.1l0,0
						L32,49.6l0,0c0,0-0.1,0-0.1,0c-0.1,0-0.2,0-0.3-0.1c-0.1-0.1-0.1-0.2-0.2-0.4l0-0.1c-0.1-0.2-0.2-0.4-0.2-0.6
						c0.4,0.1,0.9,0.1,1.5,0c0.3,0,0.6,0,0.9-0.1c0.3,0,0.6-0.1,0.9-0.1c0.3,0,0.7,0,1,0c0.3,0,0.6,0,0.9,0c0.5,0,0.9,0,1.4,0l0.1,0
						l-0.1,0c-0.5,0.1-1.1,0.3-1.9,0.5c-1.3,0.3-2.6,0.5-3.8,0.6l0,0v0.1l0,0c0.3,0,0.6,0,0.9,0c0,0,0,0,0,0c0.1,0,0.1,0,0.2,0
						c0.2,0,0.5,0,0.7,0c0.1,0,0.2,0,0.3,0c0.2,0,0.4,0,0.6-0.1c0.1,0,0.2,0,0.3,0c0.3,0,0.6-0.1,0.9-0.2c0.6-0.1,1.1-0.3,1.9-0.5
						c0.6-0.2,1.3-0.4,1.8-0.6l0.3-0.1c0.5-0.2,1-0.4,1.5-0.5c0.3-0.1,0.6-0.2,0.9-0.3l0.9-0.2c0.6-0.2,1.2-0.3,1.8-0.6
						c0.7-0.2,1.2-0.4,1.7-0.6c0,0.2,0.1,0.3,0.1,0.5c-0.1,0-0.2,0.1-0.3,0.1c0,0-0.1,0-0.1,0.1c-0.2,0.1-0.3,0.1-0.5,0.2
						c-0.1,0-0.2,0.1-0.3,0.1c-0.1,0-0.3,0.1-0.4,0.1c-0.3,0.1-0.6,0.2-0.8,0.3c-0.3,0.1-0.6,0.2-0.9,0.3l-0.3,0.1
						c-0.3,0.1-0.8,0.3-1.2,0.5l0,0l0,0.1l0,0c0.4,0,0.9-0.1,1.3-0.2c0.5-0.1,0.9-0.3,1.3-0.4c0.4-0.2,0.8-0.3,1.2-0.5
						c0.2-0.1,0.4-0.2,0.6-0.3c0.1-0.1,0.3-0.1,0.4-0.2c-0.1,0.2-0.1,0.5-0.2,0.7l0,0c-0.1,0.3-0.2,0.6-0.2,0.9
						c-0.1,0.3-0.1,0.6-0.2,0.9l0,0.2c0,0.1,0,0.2,0,0.3c0,0.1,0,0.2,0.1,0.3c0,0.1,0.1,0.2,0.2,0.2l0,0c-0.1,0-0.1,0.1-0.2,0.1
						c-0.3,0.1-0.6,0.2-0.8,0.2c-0.1,0-0.2,0-0.3,0c-0.2,0-0.4,0-0.7,0.1c-0.2,0-0.4,0.1-0.5,0.2c-0.1,0.1-0.3,0.2-0.4,0.4
						c0,0.1-0.1,0.1-0.1,0.2l0,0l0,0c-0.6-0.2-1.3-0.4-2.1-0.5c-0.7-0.1-1.5-0.1-2.2,0c-0.4,0-0.9,0.1-1.3,0.2
						c-0.3,0-0.6,0.1-0.8,0.1c-0.7,0.1-1.4,0.2-2.1,0.2c-0.6,0-1.4,0.1-2.1,0.2c-0.8,0.2-1.5,0.4-2.1,0.6c-0.7,0.3-1.3,0.8-1.8,1.3
						c-0.3,0.3-0.5,0.6-0.6,0.9c0,0,0,0,0,0c-0.1,0.1-0.1,0.3-0.2,0.4c0,0,0,0.1,0,0.1c0,0.1-0.1,0.2-0.1,0.4
						c-0.1,0.2-0.3,0.5-0.4,0.7c-0.2,0.3-0.4,0.7-0.6,1.1c-0.1,0.2-0.1,0.4-0.1,0.6c0,0.2,0,0.4,0,0.6c0,0.3,0,0.6,0.1,0.9
						c0,0.1,0,0.2,0,0.3c0.1,0.8,0.1,1.6,0.1,2.3c0,0.7-0.1,1.5-0.2,2.2l0,0.1c-0.1,0.9-0.1,1.6-0.1,2.4c0,0.8,0,1.6,0.1,2.4
						C26.9,70.7,27.2,72.2,27.7,73.7z"/>
					<path class="st20" d="M28,75.7L28,75.7c0.1-0.5,0.2-1,0.4-1.5c0.1-0.4,0.4-0.8,0.6-1.1c0.1-0.1,0.1-0.2,0.2-0.3l0.8-1.4
						c0.1-0.2,0.3-0.4,0.4-0.6c0.1-0.2,0.3-0.5,0.4-0.7l0,0l-0.1-0.1l0,0c-0.8,0.7-1.5,1.6-2,2.6c-0.2,0.4-0.3,0.8-0.4,1.2
						c0,0.1-0.1,0.2-0.1,0.3c-0.1,0.2-0.1,0.4-0.2,0.7c-0.1,0.3-0.2,0.6-0.3,0.9c-0.1,0.3-0.2,0.6-0.2,0.8c-0.1,0.3-0.1,0.5-0.1,0.8
						c-0.1,0.5-0.1,1.1-0.1,1.6c0,0.5,0.1,1,0.2,1.6c0.1,0.5,0.2,1,0.3,1.6l0,0l0.1,0l0,0c0.1-0.9,0.1-1.9,0.1-2.8l0-0.4
						c0-0.6,0-1.1,0-1.6C27.9,76.7,28,76.2,28,75.7z"/>
					<path class="st20" d="M26.3,95.8L26.3,95.8l0.1,0l0,0c0-0.3,0-0.6,0-1c0-0.5,0-1,0.1-1.5c0.1-0.4,0.2-0.8,0.3-1.1
						c0-0.1,0-0.1,0.1-0.1c0,0,0-0.1,0.1-0.1l0.1-0.2l0.3-0.5c0.4-0.6,0.8-1.3,1.2-2.1c0.4-0.7,0.7-1.4,1.1-2.2
						c0.3-0.6,0.6-1.4,1-2.2c0.2-0.3,0.3-0.6,0.5-1c0.2-0.4,0.4-0.8,0.6-1.2c0.3-0.7,0.6-1.4,0.9-2.3c0.3-0.8,0.5-1.6,0.7-2.4l0,0
						l-0.1,0l0,0c-0.3,0.6-0.5,1.2-0.8,1.7c-0.1,0.2-0.2,0.4-0.2,0.5l-0.5,1.1c-0.2,0.4-0.3,0.8-0.5,1.1c-0.1,0.2-0.2,0.5-0.3,0.7
						c-0.2,0.5-0.4,1-0.6,1.5c-0.3,0.7-0.7,1.4-1.1,2.2l-0.6,1.1l-0.6,1.1l-1.3,2.1l-0.3,0.5l0,0.1c0,0.1-0.1,0.1-0.1,0.2l0,0.1
						c0,0.1-0.1,0.2-0.1,0.2c-0.1,0.4-0.2,0.8-0.3,1.3c0,0.7,0.1,1.4,0.2,2C26.2,95.5,26.2,95.6,26.3,95.8z"/>
					<path class="st20" d="M60.1,83.7c-0.1-0.6-0.2-1.3-0.3-1.9c-0.2-0.8-0.5-1.7-0.7-2.4c-0.1-0.4-0.2-0.7-0.3-1.1
						c-0.1-0.4-0.3-0.9-0.4-1.4c-0.2-0.7-0.4-1.5-0.5-2.5c-0.1-0.6-0.1-1.3-0.2-2c-0.1-1-0.1-2.1-0.4-3.1c0-0.1,0-0.1,0-0.2
						c0-0.1-0.1-0.3-0.1-0.4l-0.2-0.6c-0.1-0.1-0.1-0.3-0.2-0.4l-0.1-0.2c-0.1-0.1-0.1-0.3-0.2-0.4c0-0.1-0.1-0.1-0.1-0.2
						c-0.4-0.8-1-1.5-1.6-2l0,0L54.6,65l0,0c0.5,0.7,1,1.4,1.3,2.1c0.1,0.1,0.1,0.2,0.2,0.4c0,0,0,0.1,0,0.1c0,0.1,0,0.1,0.1,0.2
						c0,0-0.1-0.1-0.1-0.1l0,0c-0.1-0.1-0.1-0.1-0.2-0.2c0,0-0.1-0.1-0.1-0.1c-0.1-0.1-0.2-0.2-0.4-0.3c-0.1-0.1-0.2-0.2-0.3-0.4
						c0-0.1-0.1-0.2-0.1-0.2c0-0.1-0.1-0.2-0.1-0.3c-0.1-0.1-0.2-0.3-0.4-0.4c-0.2-0.1-0.4-0.2-0.6-0.2l0,0l-0.1,0.1l0,0
						c0.1,0.2,0.2,0.3,0.3,0.4l0.1,0.1c0.1,0.1,0.2,0.2,0.3,0.3c0,0,0.1,0.1,0.1,0.1c0.1,0.1,0.2,0.1,0.2,0.2
						c0.1,0.1,0.2,0.2,0.2,0.4c0.1,0.2,0.1,0.4,0.2,0.5c0.1,0.1,0.2,0.3,0.3,0.4c0.1,0.1,0.1,0.1,0.2,0.1c0,0,0,0,0.1,0
						c0,0,0.1,0.1,0.1,0.1c0,0,0.1,0,0.1,0c0,0,0.1,0,0.1,0c0,0,0.1,0,0.1,0c0,0,0.1,0,0.1,0c0,0.1,0.1,0.2,0.1,0.3
						c0,0.1,0,0.1,0,0.2c0,0.2,0.1,0.3,0.1,0.5c0.4,1.7,0.6,3.4,0.8,5l0,0.2c0.1,0.8,0.2,1.6,0.4,2.4c0.2,0.8,0.4,1.6,0.6,2.5
						c0.5,1.7,0.9,3.3,1,4.9c0,0.8,0,1.6,0.1,2.4c0,0.4,0,0.8,0.1,1.2l0,0.2c0,0.3,0.1,0.7,0.1,1l0,0l0.1,0l0.1-2.5
						c0-0.5,0-1.1,0.1-1.6c0-0.3,0-0.5,0-0.8l0,0l0,0C60.1,84.1,60.1,83.9,60.1,83.7z"/>
					<path class="st20" d="M42.7,59.9c0.1-0.2,0.2-0.5,0.3-0.7c0.1-0.2,0.2-0.5,0.3-0.7c0.1-0.2,0.2-0.5,0.2-0.7
						c0.1-0.2,0.1-0.5,0.2-0.8c0.1-0.6,0.2-1.1,0.2-1.5l0,0l-0.1,0l0,0c-0.2,0.5-0.3,0.9-0.5,1.4l-0.1,0.4L43,57.6
						c-0.1,0.3-0.1,0.5-0.2,0.7c0,0.2-0.1,0.3-0.1,0.5c-0.1,0.3-0.1,0.7-0.2,1c-0.1,0.4-0.3,0.9-0.6,1.4l-0.3,0.7
						c-0.1,0.1-0.1,0.3-0.2,0.4c0,0.1-0.1,0.2-0.1,0.3l-0.3,0.7c-0.1,0.2-0.2,0.5-0.3,0.7c-0.2,0.4-0.4,1-0.4,1.5c0,0.3,0,0.6,0,0.8
						c0.1,0.3,0.2,0.5,0.4,0.7l0,0l0.1-0.1l0,0c-0.2-0.4-0.2-0.9,0-1.4c0.1-0.5,0.3-1,0.5-1.4c0.2-0.4,0.4-0.9,0.6-1.4
						c0.2-0.4,0.3-0.9,0.5-1.5C42.4,60.8,42.6,60.3,42.7,59.9z"/>
				</g>
			</g>
			<path class="st20" d="M126.3,93.6c0.7-4.8,1.1-9.8,1.1-14.8c0-20.6-6.2-40-17.5-54.7c-11.5-15-27-23.3-43.6-23.3
				s-32,8.3-43.6,23.3C11.6,38.8,5.4,58.2,5.4,78.8c0,5,0.4,10,1.1,14.9L1,95.2v45.3l10.9-2.9c3.8-1,7.8-2,11.9-2.8
				c11.4,14.3,26.5,22.1,42.6,22.1c16.1,0,31.2-7.9,42.6-22.1c4.1,0.8,8.1,1.8,11.9,2.8l10.9,2.9V95L126.3,93.6z M130.2,138.4
				l-8.9-2.4c-4-1.1-8.2-2.1-12.5-3l-0.5-0.1l-0.3,0.4c-11.1,14.1-26,21.9-41.7,21.9c-15.7,0-30.5-7.8-41.7-21.9l-0.3-0.4l-0.5,0.1
				c-4.3,0.9-8.5,1.9-12.5,3l-8.9,2.4v-42l5.7-1.5l-0.1-0.7C7.4,89.1,7,84,7,78.8C7,58.5,13,39.5,24.1,25.1
				C35.3,10.4,50.4,2.4,66.4,2.4c16,0,31.1,8.1,42.3,22.7c11.1,14.4,17.1,33.5,17.1,53.7c0,5.1-0.4,10.2-1.2,15.2l-0.1,0.7l5.7,1.5
				V138.4z"/>
			<path class="st20" d="M121.4,96.7c1.1-5.8,1.7-11.9,1.7-17.9c0-24.1-9-45.6-22.8-59c0,0,0,0,0,0l0,0l0,0
				c-0.1-0.1-0.1-0.1-0.2-0.2c-0.1-0.1-0.2-0.2-0.3-0.2l-0.1-0.1l0,0C90.4,10.4,78.9,5.1,66.4,5.1C35.1,5.1,9.7,38.2,9.7,78.8
				c0,6.1,0.6,12.2,1.7,18c-1,0.3-2,0.5-2.9,0.8l-3.2,0.9v36.3l5.4-1.5c4.8-1.3,9.7-2.4,14.8-3.4c10.8,14.6,25.3,22.6,40.9,22.6
				c15.6,0,30.1-8,40.9-22.6c5.1,1,10.1,2.1,14.8,3.4l5.4,1.5V98.3l-3.2-0.9C123.4,97.2,122.4,97,121.4,96.7z M126.7,133.8l-4.4-1.2
				c-4.9-1.3-9.9-2.5-15.1-3.5l-0.2,0l-0.1,0.2c-10.7,14.5-25,22.4-40.4,22.4s-29.7-8-40.4-22.4l-0.1-0.2l-0.2,0
				c-5.2,1-10.3,2.2-15.1,3.5l-4.4,1.2V99.1l2.6-0.7c1.1-0.3,2.2-0.6,3.3-0.9l0.4-0.1L12.2,97c-1.2-5.9-1.8-12.1-1.8-18.2
				c0-40.2,25.1-72.9,55.9-72.9c11.5,0,22.1,4.5,31,12.3c-0.1,0.3-0.3,0.6-0.4,0.9c-0.3,0.7-0.7,1.4-1,2.2v0
				c-0.2,0.6-0.4,1.2-0.5,1.7c-0.1,0.6-0.1,1.3-0.2,1.8c0,0.3,0,0.6,0,0.8c0,0.9-0.1,1.8-0.2,2.6c-0.1,0.6-0.3,1.1-0.5,1.6
				c-0.1,0.1-0.1,0.3-0.2,0.4c-0.2,0.4-0.4,0.8-0.5,1.2c-0.2,0.5-0.3,1.1-0.3,1.8c-0.1,0.6-0.1,1.2-0.2,1.7
				c-0.1,1.3-0.1,2.4-0.2,3.5c0,1.1,0,2.3,0,3.5l0,0l0.2,0l0,0c0.1-1.1,0.2-2.3,0.4-3.5l0.1-0.9c0.1-0.8,0.2-1.7,0.3-2.5l0.2-1.7
				c0.1-0.5,0.1-1.1,0.3-1.7c0.1-0.2,0.1-0.4,0.2-0.6c-0.1,1.6,0,3.2,0.2,4.7c0.1,0.9,0.2,1.9,0.5,3.1c0,0.2,0.1,0.4,0.1,0.5
				c0.2,0.8,0.3,1.7,0.4,2.5c0.3,2,0.2,4.1,0.1,6.1l0,0.1c-0.1,1.2-0.1,2.2-0.1,3.1c0,1.1,0.1,2.3,0.1,3.1c0,0.3,0,0.6,0,0.8
				c0.1,1.8,0.2,3.6,0.1,5.4c0,0.5,0,0.9-0.1,1.3l0,0.2L96.2,63c0,0.2,0,0.3-0.1,0.5c0,0.1,0,0.2,0,0.3c-0.2,1.1-0.4,2.1-0.7,3
				c0,0.1-0.1,0.3-0.1,0.4c-0.3,0.9-0.6,1.7-0.7,2.7c-0.1,0.7-0.1,1.5-0.1,2.2c0,0.3,0,0.7,0,1c0,1.1-0.1,2.1-0.3,3.1
				c-0.1,1.1-0.3,2.1-0.6,3l-0.1,0.3l0.3,0c0.4,0,0.9-0.2,1.2-0.6c0.3-0.3,0.6-0.6,0.8-1c0.1-0.1,0.1-0.2,0.2-0.3
				c0.2-0.2,0.3-0.5,0.5-0.7c0,0,0,0,0-0.1c0-0.1,0.1-0.1,0.1-0.2c0.1-0.1,0.1-0.1,0.2-0.2c0.1,0,0.2-0.1,0.3-0.1
				c0.1,0,0.1,0,0.2,0.1l0,0l0.1-0.1l0,0c0-0.1-0.2-0.2-0.3-0.2c-0.1,0-0.2,0-0.4,0.1c-0.1,0-0.2,0.1-0.3,0.2
				c-0.1,0.1-0.1,0.1-0.2,0.2l0,0.1c-0.2,0.2-0.4,0.5-0.6,0.7c-0.1,0.1-0.1,0.2-0.2,0.3c-0.2,0.3-0.5,0.6-0.8,0.9
				c-0.2,0.2-0.4,0.3-0.7,0.3c0.3-1,0.5-1.9,0.6-2.7C95,75,95.1,74,95.2,73c0-0.3,0-0.7,0-1c0-0.7,0.1-1.4,0.2-2.1
				c0.1-0.8,0.4-1.7,0.7-2.5c0-0.1,0.1-0.3,0.1-0.4c0.6-1.9,0.9-4,0.9-6.3c0-1.7-0.1-3.5-0.2-5.2c0-0.4-0.1-0.7-0.1-1.1
				c-0.1-0.8-0.1-2-0.2-3.1c0-0.9,0-1.9,0-3.1l0-0.3c0.1-2,0.1-4-0.2-6c-0.1-0.8-0.3-1.7-0.5-2.5c0-0.2-0.1-0.4-0.1-0.6
				c-0.2-1.2-0.4-2.2-0.5-3.1c-0.2-1.7-0.3-3.5-0.2-5.2c0.1-0.2,0.1-0.3,0.2-0.5c0.2-0.5,0.4-1.1,0.5-1.8c0.1-0.9,0.1-1.8,0.1-2.7
				c0-0.3,0-0.6,0-0.8c0-0.7,0-1.2,0.1-1.7c0.1-0.5,0.2-1,0.4-1.7c0.2-0.7,0.6-1.5,0.9-2.2c0.1-0.3,0.2-0.5,0.3-0.8
				c0.8,0.7,1.5,1.4,2.3,2.1c0.1,1.2,0.1,2.6,0.1,4.2c0,1.4-0.1,2.9-0.2,4.3c-0.1,2-0.2,4-0.2,6.1c0,1.9,0.2,3.6,0.5,5.2
				c0.2,0.8,0.4,1.7,0.6,2.5l0,0c0.2,0.8,0.4,1.7,0.6,2.5c0.8,3.3,1.3,6.7,1.6,10.1c0,1.5,0.4,3,0.8,4.5c0.3,1.3,0.7,2.8,1.1,4.4
				c0.1,0.7,0.3,1.5,0.4,2.2c0,0.3,0.1,0.5,0.1,0.8c0,0.1,0,0.2,0,0.4c0,0.1,0,0.2,0,0.4c0,0.3,0.1,0.5,0.1,0.8
				c0.1,1.5,0.1,3.1-0.1,4.5l0,0l0.1,0c-0.1,0.7-0.3,1.5-0.5,2.2c-0.2,0.4-0.3,0.8-0.5,1.2l-0.5,0.9l-0.2,0.3
				c-0.8,1.5-1.9,2.8-2.9,4.1l-0.1,0.2c-0.6,0.7-1.1,1.4-1.6,2.1c-0.6,0.8-1,1.5-1.4,2.3c-0.5,1-0.8,1.8-0.9,2.5
				c-0.2,0.9-0.3,1.9-0.2,2.7l0,0l0.2,0l0,0c0.1-0.8,0.3-1.7,0.6-2.5c0.3-0.7,0.6-1.5,1.1-2.4c0.8-1.4,1.8-2.9,2.9-4.4l0.1-0.2
				c1-1.4,2-2.8,2.8-4.3l0.2-0.3l0.4-0.9c0.2-0.4,0.3-0.8,0.5-1.3c0.3-0.9,0.4-1.8,0.5-2.6l0,0l0,0c0.1-0.4,0.2-0.7,0.2-1.1
				c0.4,1.6,0.5,3.3,0.5,5.6c0,0.9,0,1.8,0,2.6l0,1.7l0,0.1c0,0.5,0,0.9,0,1.4c0,0.7,0,1.4,0.1,2.1c0,1.2,0.1,2.4,0.1,3.6
				c0.1,2.2,0.3,4.1,0.7,5.8l0,0l0.2,0l0,0c0-0.4-0.1-0.9-0.1-1.3c-0.1-1.3-0.1-2.8-0.1-4.4l0-2.9c0-1,0-2,0-2.9
				c0-0.4,0-0.8-0.1-1.2l0-0.3l0-1.4c0-0.3,0-0.5,0-0.8c0-0.7,0-1.4-0.1-2.1c-0.1-2.4-0.5-4.2-1-5.8l0,0l-0.1,0c0.2-1,0.2-2,0.2-3
				c0-0.8-0.1-1.5-0.2-2.3c-0.1-0.8-0.2-1.5-0.4-2.3l0,0c-0.2-0.8-0.3-1.5-0.5-2.3c0-0.2-0.1-0.3-0.1-0.5c-0.2-0.6-0.3-1.2-0.5-1.7
				l-0.1-0.4c-0.4-1.3-0.8-2.6-1.1-3.9c0-0.4,0-0.8,0-1.2c0-0.4,0-0.8-0.1-1.3c-0.1-0.9-0.1-1.8-0.2-2.6c-0.2-1.8-0.5-3.5-0.8-5.1
				c-0.2-0.9-0.4-1.7-0.6-2.5c-0.2-0.8-0.4-1.7-0.5-2.5c-0.2-0.9-0.3-1.7-0.3-2.5c-0.1-0.7-0.1-1.5-0.1-2.5c0-1.7,0-3.4,0.1-5l0-0.1
				c0-0.4,0-0.8,0.1-1.3c0.1-1.3,0.1-2.6,0.1-3.9c0-1.3-0.1-2.5-0.2-3.7c13.3,13.3,21.8,34.3,21.8,57.7c0,6.1-0.6,12.2-1.7,18.1
				l-0.1,0.4l0.4,0.1c1.1,0.3,2.2,0.6,3.3,0.9l2.6,0.7V133.8z"/>
		</g>
	</g>
	<g>
		<path class="st20" d="M42.1,134.4h0.8v4.2h-0.8V134.4z"/>
		<path class="st20" d="M44.9,138.6l-0.5-1.7h-0.1v1.7h-0.8v-4.2h0.8l0.5,1.7h0.1v-1.7h0.8v4.2H44.9z"/>
		<path class="st20" d="M46.4,134.4h1.2c0.4,0,0.7,0.3,0.7,0.7v2.8c0,0.4-0.3,0.7-0.7,0.7h-1.2V134.4z M47.6,135.3
			c0-0.1-0.1-0.2-0.2-0.2h-0.2v2.7h0.2c0.1,0,0.2-0.1,0.2-0.2V135.3z"/>
		<path class="st20" d="M49.1,137.8h0.8v0.8h-0.8V137.8z"/>
	</g>
	<g>
		<path class="st20" d="M83.4,138.6h-0.8l0-0.7h-0.3l0,0.7h-0.8l0.2-4.2h1.4L83.4,138.6z M82.6,137.1l-0.1-2h-0.1l-0.1,2H82.6z"/>
		<path class="st20" d="M85.8,136.8l0.4,1.7h-0.8L85,137H85v1.6h-0.8v-4.2h1.1c0.5,0,0.8,0.4,0.8,0.8v1
			C86.1,136.4,86,136.7,85.8,136.8z M85,136.2h0.2c0.1,0,0.2-0.1,0.2-0.2v-0.7c0-0.1-0.1-0.2-0.2-0.2H85V136.2z"/>
		<path class="st20" d="M88.7,135.6H88v-0.4c0-0.1,0-0.1-0.1-0.1c0,0-0.1-0.1-0.1-0.1c-0.1,0-0.2,0.1-0.2,0.2v2.5
			c0,0.1,0.1,0.2,0.2,0.2c0.1,0,0.2-0.1,0.2-0.2v-0.9h-0.1v-0.8h0.9v2.5H88l0.1-0.2H88c-0.1,0.1-0.3,0.2-0.5,0.2
			c-0.2,0-0.5-0.1-0.6-0.4c0-0.1-0.1-0.2-0.1-0.4v-2.8c0-0.5,0.4-0.8,0.8-0.8h0.2c0.5,0,0.8,0.4,0.8,0.8V135.6z"/>
		<path class="st20" d="M89.5,137.8h0.8v0.8h-0.8V137.8z"/>
	</g>
	<g>
		<g>
			<g>
				<g>
					<path class="st20" d="M57.5,144.1h-2.3v-9.4c-0.7,0.3-1.5,0.5-2.3,0.5v-1.9c1.3,0,2.3-0.9,2.3-1.9h2.3V144.1z"/>
				</g>
				<g>
					<path class="st20" d="M64.2,141.4c0,0.8-0.3,1.5-0.8,2c-0.5,0.5-1.2,0.8-2,0.8c-1.6,0-2.9-1.3-2.9-2.9v-1.3h2.3v1.3
						c0,0.2,0.1,0.3,0.2,0.4c0.1,0.1,0.2,0.2,0.4,0.2c0.3,0,0.6-0.3,0.6-0.6v-2.7c0,0-0.1,0.1-0.1,0.1c-0.3,0.4-0.8,0.6-1.4,0.6
						c-0.7,0-1.5-0.3-1.8-1.1c-0.1-0.3-0.2-0.7-0.2-1.1v-3.4c0-0.5,0.1-0.9,0.3-1.3c0,0,0,0,0,0c0,0,0-0.1,0-0.1c0,0,0,0,0-0.1
						c0,0,0,0,0-0.1c0,0,0,0,0-0.1c0,0,0-0.1,0.1-0.1c0,0,0,0,0,0c0,0,0,0,0,0c0,0,0,0,0,0c0,0,0,0,0,0c0,0,0,0,0,0c0,0,0,0,0,0
						c0,0,0,0,0,0c0,0,0,0,0,0c0,0,0,0,0,0c0,0,0,0,0,0c0,0,0,0,0,0c0,0,0,0,0,0c0,0,0,0,0.1-0.1c0,0,0,0,0.1,0c0,0,0.1,0,0.1-0.1
						c0,0,0,0,0.1,0c0,0,0.1,0,0.1-0.1c0,0,0,0,0.1,0h0c0,0,0,0,0.1,0h0c0,0,0,0,0.1,0c0.1-0.1,0.2-0.1,0.3-0.2c0,0,0.1,0,0.1-0.1
						c0.2-0.1,0.3-0.1,0.5-0.1c0,0,0.1,0,0.1,0c0.2,0,0.3,0,0.5,0c0.1,0,0.2,0,0.3,0c0,0,0,0,0.1,0c0,0,0.1,0,0.1,0c0,0,0.1,0,0.1,0
						c0,0,0,0,0.1,0c0,0,0,0,0,0c0,0,0,0,0.1,0c0,0,0,0,0.1,0c0,0,0.1,0,0.1,0c0,0,0,0,0.1,0c0,0,0.1,0,0.1,0c0,0,0,0,0.1,0
						c0,0,0.1,0,0.1,0.1c0,0,0,0,0.1,0c0,0,0.1,0.1,0.1,0.1c0,0,0,0,0,0c0,0,0.1,0.1,0.1,0.1c0,0,0,0,0.1,0c0.1,0.1,0.1,0.1,0.2,0.2
						c0,0,0,0,0.1,0c0,0,0.1,0,0.1,0.1c0,0,0,0,0,0c0,0,0,0,0,0.1c0,0,0,0,0,0c0,0,0,0,0,0.1c0,0.1,0.1,0.1,0.1,0.2c0,0,0,0,0,0
						c0,0,0,0,0,0c0,0,0,0,0,0.1c0,0,0.1,0.1,0.1,0.1c0.3,0.4,0.4,0.9,0.4,1.5V141.4z M61.4,133.3C61.4,133.3,61.3,133.3,61.4,133.3
						c-0.3,0-0.6,0.3-0.6,0.6v2.7c0,0.3,0.3,0.6,0.6,0.6c0.3,0,0.5-0.2,0.5-0.5v0c0,0,0,0,0,0v-2.7c0,0,0,0,0,0
						c0-0.1-0.1-0.3-0.2-0.4C61.7,133.4,61.5,133.3,61.4,133.3z"/>
				</g>
				<g>
					<path class="st20" d="M71,141.4c0,0.8-0.3,1.5-0.8,2c-0.5,0.5-1.2,0.8-2,0.8c-1.6,0-2.9-1.3-2.9-2.9v-1.3h2.3v1.3
						c0,0.2,0.1,0.3,0.2,0.4c0.1,0.1,0.2,0.2,0.4,0.2c0.3,0,0.6-0.3,0.6-0.6v-2.7c0,0-0.1,0.1-0.1,0.1c-0.3,0.4-0.8,0.6-1.4,0.6
						c-0.7,0-1.5-0.3-1.8-1.1c-0.1-0.3-0.2-0.7-0.2-1.1v-3.4c0-0.5,0.1-0.9,0.3-1.3c0,0,0,0,0,0c0,0,0-0.1,0-0.1c0,0,0,0,0-0.1
						c0,0,0,0,0-0.1c0,0,0,0,0-0.1c0,0,0-0.1,0.1-0.1c0,0,0,0,0,0c0,0,0,0,0,0c0,0,0,0,0,0s0,0,0,0c0,0,0,0,0,0c0,0,0,0,0,0
						c0,0,0,0,0,0c0,0,0,0,0,0c0,0,0,0,0,0c0,0,0,0,0,0c0,0,0,0,0,0c0,0,0,0,0,0c0,0,0,0,0.1-0.1c0,0,0,0,0.1,0c0,0,0.1,0,0.1-0.1
						c0,0,0,0,0.1,0c0,0,0.1,0,0.1-0.1c0,0,0,0,0.1,0h0c0,0,0,0,0.1,0h0c0,0,0,0,0.1,0c0.1-0.1,0.2-0.1,0.3-0.2c0,0,0.1,0,0.1-0.1
						c0.2-0.1,0.3-0.1,0.5-0.1c0,0,0.1,0,0.1,0c0.2,0,0.3,0,0.5,0c0.1,0,0.2,0,0.3,0c0,0,0,0,0.1,0c0,0,0.1,0,0.1,0c0,0,0.1,0,0.1,0
						c0,0,0,0,0.1,0c0,0,0,0,0,0c0,0,0,0,0.1,0c0,0,0,0,0.1,0c0,0,0.1,0,0.1,0c0,0,0,0,0.1,0c0,0,0.1,0,0.1,0c0,0,0,0,0.1,0
						c0,0,0.1,0,0.1,0.1c0,0,0,0,0.1,0c0,0,0.1,0.1,0.1,0.1c0,0,0,0,0,0c0,0,0.1,0.1,0.1,0.1c0,0,0,0,0.1,0c0.1,0.1,0.1,0.1,0.2,0.2
						c0,0,0,0,0.1,0c0,0,0.1,0,0.1,0.1c0,0,0,0,0,0c0,0,0,0,0,0.1c0,0,0,0,0,0c0,0,0,0,0,0.1c0,0.1,0.1,0.1,0.1,0.2c0,0,0,0,0,0
						c0,0,0,0,0,0c0,0,0,0,0,0.1c0,0,0.1,0.1,0.1,0.1c0.3,0.4,0.4,0.9,0.4,1.5V141.4z M68.1,133.3C68.1,133.3,68.1,133.3,68.1,133.3
						c-0.3,0-0.6,0.3-0.6,0.6v2.7c0,0.3,0.3,0.6,0.6,0.6c0.3,0,0.5-0.2,0.5-0.5v0c0,0,0,0,0,0v-2.7c0,0,0,0,0,0
						c0-0.1-0.1-0.3-0.2-0.4C68.4,133.4,68.3,133.3,68.1,133.3z"/>
				</g>
				<g>
					<path class="st20" d="M78.1,139.5v2.3h-0.3v2.3h-2.3v-2.3H72v-2.3l3.5-8.2h2.3v8.2H78.1z M75.5,137.2l-1,2.3h1V137.2z"/>
				</g>
			</g>
		</g>
	</g>
	<g>
		<g>
			<path class="st20" d="M63,126.5h0.8v0.8H63v1h1v0.8h-1.8v-4.3H64v0.8h-1V126.5z"/>
		</g>
		<g>
			<path class="st20" d="M65.7,125.6c0-0.1-0.1-0.2-0.2-0.2c-0.1,0-0.1,0-0.1,0.1c0,0-0.1,0.1-0.1,0.1v0.2c0,0.1,0,0.1,0,0.2
				c0,0.1,0.1,0.2,0.2,0.3l0.2,0.3l0.3,0.4c0.2,0.3,0.4,0.6,0.4,1v0.4c0,0.1,0,0.1,0,0.2c-0.1,0.4-0.4,0.7-0.8,0.7h-0.2
				c-0.5,0-0.9-0.4-0.9-0.9v-0.7h0.8v0.6c0,0.1,0.1,0.2,0.2,0.2c0.1,0,0.1,0,0.1-0.1c0,0,0.1-0.1,0.1-0.1v-0.2
				c0-0.2-0.1-0.4-0.2-0.5l-0.1-0.1l-0.5-0.5c0,0-0.1-0.1-0.1-0.1c-0.2-0.2-0.3-0.5-0.3-0.9v-0.4c0,0,0-0.1,0-0.1c0,0,0,0,0-0.1
				c0,0,0-0.1,0-0.1c0.1-0.3,0.4-0.6,0.8-0.6h0.2c0.5,0,0.9,0.4,0.9,0.9v0.7h-0.8v0V125.6z"/>
		</g>
		<g>
			<path class="st20" d="M68.9,125.5h-0.6v3.6h-0.8v-3.6h-0.6v-0.8h0.6h0.8h0.6V125.5z"/>
		</g>
		<g>
			<path class="st20" d="M68.9,128.2h0.8v0.8h-0.8V128.2z"/>
		</g>
	</g>
	<g>
		<rect x="71.8" y="126.2" class="st20" width="6" height="0.9"/>
	</g>
	<g>
		<rect x="52.9" y="126.2" class="st20" width="6" height="0.9"/>
	</g>
</g>
</svg>
