<?xml version="1.0" encoding="utf-8"?>
<svg version="1.1" id="Capa_1" xmlns="http://www.w3.org/2000/svg" xmlns:xlink="http://www.w3.org/1999/xlink" x="0px" y="0px"
	 viewBox="0 0 699.4 237.4" style="enable-background:new 0 0 699.4 237.4;" xml:space="preserve">
<style type="text/css">
	.st0{fill:#AA8350;}
	.st1{clip-path:url(#SVGID_2_);}
	.st2{fill:#0F0F0F;}
	.st3{fill:#3C3C3B;}
	.st4{clip-path:url(#SVGID_6_);}
	.st5{fill:none;stroke:#1D1D1B;stroke-miterlimit:10;}
	.st6{clip-path:url(#SVGID_8_);}
	.st7{fill:#1D1D1B;}
	.st8{fill:#FFFFFF;}
	.st9{fill:none;stroke:#1D1D1B;stroke-width:8;stroke-miterlimit:10;}
	.st10{fill:none;stroke:#1D1D1B;stroke-width:5;stroke-miterlimit:10;}
	.st11{fill:none;stroke:#1D1D1B;stroke-width:2;stroke-miterlimit:10;}
	.st12{clip-path:url(#SVGID_10_);}
	.st13{clip-path:url(#SVGID_12_);}
	.st14{fill:none;stroke:#1D1D1B;stroke-width:7;stroke-miterlimit:10;}
	.st15{fill:none;stroke:#1D1D1B;stroke-width:4;stroke-miterlimit:10;}
	.st16{fill:#FFFFFF;stroke:#1D1D1B;stroke-width:4;stroke-miterlimit:10;}
	.st17{clip-path:url(#SVGID_14_);}
	.st18{clip-path:url(#SVGID_16_);}
	.st19{clip-path:url(#SVGID_18_);}
	.st20{clip-path:url(#SVGID_20_);}
	.st21{fill:#31231E;}
</style>
<g>
	<g>
		<path class="st21" d="M72.2,65c0-4.8-3.8-8.8-8.5-8.8c-2.4,0-4.6,0.9-6.1,2.5C56,60.3,55,62.4,55,64.8v10c0,3,0.4,5.9,1.3,8.8
			c1.4,4.7,3.8,9,7.3,12.5l10.9,11.5l15.1,15.9c10.9,11.5,17,26.8,17,42.6v16.7c0,2.6-0.3,5.2-0.8,7.7
			c-3.5,17.1-18.7,29.9-36.8,29.9H58.2c-20.7,0-37.6-16.8-37.6-37.6v-30.4H55v24.8c0,4.8,3.8,8.8,8.5,8.8c2.4,0,4.6-0.9,6.1-2.5
			c1.6-1.6,2.5-3.7,2.5-6.1v-10c0-7.9-3-15.6-8.5-21.3l-5.5-5.8l-20.4-21.5c-1.6-1.6-3-3.3-4.4-5.1c-8.2-10.7-12.6-23.9-12.6-37.5
			V59.4c0-1.8,0.1-3.5,0.4-5.2c0.1-0.8,0.2-1.6,0.4-2.4c0.3-1.6,0.8-3.2,1.3-4.8c5.1-14.7,19.1-25.2,35.5-25.2H69
			c20.7,0,37.6,16.8,37.6,37.6v30.4H72.2v0V65z"/>
		<path class="st21" d="M200.4,216.6h-35.9l-1.1-30.6h-12.4l-1.1,30.6h-35.8l10.7-191.1h64.9L200.4,216.6z M162.1,151.6l-3.4-91.8
			h-3.1l-3.4,91.8H162.1z"/>
		<path class="st21" d="M269.9,216.6l-22.4-78.4h-3v78.4H210V25.5h34.4l22.4,78.4h3V25.5h34.4v191.1H269.9z"/>
		<path class="st21" d="M365.7,65c0-4.8-3.8-8.8-8.5-8.8c-2.4,0-4.6,0.9-6.1,2.5c-1.6,1.6-2.5,3.7-2.5,6.1v112.5
			c0,2.4,1,4.5,2.5,6.1c1.6,1.6,3.7,2.5,6.1,2.5c4.8,0,8.5-4.1,8.5-8.8v-39.1h34.4v44.7c0,20.7-16.8,37.6-37.6,37.6h-10.7
			c-20.7,0-37.6-16.8-37.6-37.6V59.4c0-20.7,16.8-37.5,37.6-37.5h10.7c20.7,0,37.6,16.8,37.6,37.6v44.2h-34.4V65z"/>
		<path class="st21" d="M496.1,25.5v191.1h-34.4v-78.6h-17.2v78.6h-34.4v-78.6v-34.4V25.5h34.4v78.1h17.2V25.5H496.1z"/>
		<path class="st21" d="M540.2,103.9h37.3v34.3h-37.3v44h42.9v34.4h-77.3V25.5h77.3v34.4h-42.9V103.9z"/>
		<path class="st21" d="M630,182.2h48.8v34.4h-85.9v-34l45.6-119.5v-3.2h-42.4V25.5h79.5v34.4L630,179V182.2z"/>
	</g>
</g>
</svg>
